<?xml version="1.0" encoding="utf-8"?>
<!-- Generator: Adobe Illustrator 18.1.1, SVG Export Plug-In . SVG Version: 6.00 Build 0)  -->
<svg version="1.1" id="Layer_1" xmlns="http://www.w3.org/2000/svg" xmlns:xlink="http://www.w3.org/1999/xlink" x="0px" y="0px"
	 viewBox="0 0 34 34" enable-background="new 0 0 34 34" xml:space="preserve">
<g>
	<path fill="#9F9F9F" d="M23.6,4.6c5.2,5.2,5.2,13.7,0,19s-13.7,5.2-19,0s-5.2-13.7,0-19S18.4-0.6,23.6,4.6z M7.6,7.5
		C4,11.1,4,17,7.6,20.6s9.5,3.6,13.1,0s3.6-9.5,0-13.1S11.2,3.9,7.6,7.5z"/>
	<path fill="#9F9F9F" d="M32.6,32.5L32.6,32.5c-0.9,0.9-2.4,0.9-3.2,0L21.8,25c-0.9-0.9-0.9-2.3,0-3.2l0,0c0.9-0.9,2.3-0.9,3.2,0
		l7.6,7.6C33.5,30.2,33.5,31.6,32.6,32.5z"/>
</g>
</svg>
