<?xml version="1.0" encoding="utf-8"?>
<!-- Generator: Adobe Illustrator 18.1.1, SVG Export Plug-In . SVG Version: 6.00 Build 0)  -->
<svg version="1.1" id="Layer_1" xmlns="http://www.w3.org/2000/svg" xmlns:xlink="http://www.w3.org/1999/xlink" x="0px" y="0px"
	 viewBox="0 0 34 34" enable-background="new 0 0 34 34" xml:space="preserve">
<g>
	<g>
		<path fill="#9F9F9F" d="M33,9.3c0,3-2.4,5.4-5.3,5.5l-1.2,7.5H8.1l-1.6-7.5H6.5c-3,0-5.5-2.5-5.5-5.5c0-3,2.5-5.5,5.5-5.5
			c2.5,0,4.6,1.7,5.3,4c0.7-2.3,2.8-4,5.3-4s4.6,1.7,5.3,4c0.7-2.3,2.8-4,5.3-4C30.6,3.8,33,6.3,33,9.3z"/>
		<polygon fill="#9F9F9F" points="26.5,22.3 26.1,25.3 25.3,30.2 9.8,30.2 8.7,25.3 8.1,22.3 		"/>
	</g>
	<polygon fill="#FFFFFF" points="26.5,22.3 26.1,25.3 8.7,25.3 8.1,22.3 	"/>
</g>
</svg>
