<?xml version="1.0" encoding="utf-8"?>
<!-- Generator: Adobe Illustrator 17.0.1, SVG Export Plug-In . SVG Version: 6.00 Build 0)  -->
<!DOCTYPE svg PUBLIC "-//W3C//DTD SVG 1.1//EN" "http://www.w3.org/Graphics/SVG/1.1/DTD/svg11.dtd">
<svg version="1.1" id="Layer_1" xmlns="http://www.w3.org/2000/svg" xmlns:xlink="http://www.w3.org/1999/xlink" x="0px" y="0px"
	 width="90px" height="90px" viewBox="0 0 90 90" enable-background="new 0 0 90 90" xml:space="preserve">
<g>
	<path fill="#1FB6BE" d="M18.42,17.901c1.732-0.962,2,1.334,6.835,0.667S41.591,16.4,55.01,20.484S81.681,32.32,81.681,32.32
		s3.417-0.5,4.417,0s1,2.75,0,5.001c-1,2.25-1.75,2.917-1.667,6.001c0.083,3.084-3.001,16.42-5.084,20.67
		c-2.084,4.251-2.667,4.918-2.667,4.918s0.5,3.001-1.084,4.167c-1.584,1.167-3.001-0.75-4.001-0.75s-10.379,2.584-26.402-1.75
		c-16.022-4.334-29.692-12.586-29.692-12.586s-4.584,0-4.834-1.5s1.084-4.084,1.25-6.835c0.167-2.75,0.333-12.752,1.584-17.17
		s4.001-10.335,4.001-10.335S16.92,18.734,18.42,17.901z"/>
	
		<path fill="none" stroke="#FFFFFF" stroke-width="2.585" stroke-linecap="round" stroke-linejoin="round" stroke-miterlimit="10" d="
		M12.594,58.949c0,0,2.983-0.36,3.781-1.248"/>
	
		<path fill="none" stroke="#424242" stroke-width="2.585" stroke-linecap="round" stroke-linejoin="round" stroke-miterlimit="10" d="
		M80.364,28.945c0,0-2.983,0.366-3.778,1.255"/>
	
		<path fill="none" stroke="#424242" stroke-width="2.585" stroke-linecap="round" stroke-linejoin="round" stroke-miterlimit="10" d="
		M11.191,54.697c0,0,3.004-0.094,3.876-0.907"/>
	
		<path fill="none" stroke="#424242" stroke-width="2.585" stroke-linecap="round" stroke-linejoin="round" stroke-miterlimit="10" d="
		M14.793,16.942c0,0-0.085,3.004,0.675,3.924"/>
	<polyline fill="#E2EAED" points="20,43 20,39 26,39 26,42 	"/>
	<circle fill="#E2EAED" cx="22.867" cy="59.681" r="16.535"/>
	<path fill="#CDD4D7" d="M35.321,49.137C45.003,63.476,31.753,74.6,23.112,74.6c-8.913,0-12.602-5.603-13.52-7.805
		C22.169,77.409,37.266,65.25,35.321,49.137z"/>
	<path fill="#FDD074" d="M32.186,41.891c0,0,2.854,1.081,5.746,4.174c2.293,2.453,3.46,5.863,3.46,5.863l2.286-0.955
		c0,0,0.248-5.205-3.198-8.786c-3.447-3.581-7.68-2.373-7.68-2.373L32.186,41.891"/>
	<path fill="#FDD074" d="M5.303,50.005c0,0,1.238-2.79,4.487-5.505c2.576-2.153,6.047-3.13,6.047-3.13l-0.827-2.335
		c0,0-5.183-0.537-8.95,2.706s-2.796,7.537-2.796,7.537L5.303,50.005"/>
	<g>
		
			<path fill="none" stroke="#424242" stroke-width="2.585" stroke-linecap="round" stroke-linejoin="round" stroke-miterlimit="10" d="
			M85.65,28.442c-1-0.5-4.417,0-4.417,0S67.98,20.691,54.561,16.607c-13.419-4.084-24.921-2.584-29.755-1.917
			c-4.834,0.667-5.103-1.629-6.834-0.667c-1.5,0.833-0.917,4.251-0.917,4.251s-2.75,5.918-4.001,10.335
			c-0.64,2.262-0.995,5.986-1.213,9.454c-1.577,0.353-3.377,1.042-4.938,2.385c-3.767,3.243-2.796,7.537-2.796,7.537l2.039,0.728
			c0,0,1.238-2.79,4.487-5.505c0.317-0.265,0.647-0.511,0.983-0.741c-0.061,1.433-0.104,2.611-0.146,3.312
			c-0.019,0.31-0.056,0.616-0.101,0.921c-2.99,2.992-4.84,7.124-4.84,11.689c0,9.132,7.403,16.535,16.535,16.535
			c6.885,0,12.782-4.209,15.27-10.193c2.074,0.708,4.219,1.376,6.411,1.969c16.022,4.334,25.401,1.75,26.402,1.75
			s2.417,1.917,4.001,0.75c1.583-1.167,1.083-4.167,1.083-4.167s0.583-0.667,2.667-4.918s5.168-17.586,5.084-20.67
			c-0.083-3.084,0.667-3.751,1.667-6.001C86.65,31.193,86.65,28.942,85.65,28.442z"/>
		
			<path fill="none" stroke="#424242" stroke-width="2.585" stroke-linecap="round" stroke-linejoin="round" stroke-miterlimit="10" d="
			M80.927,34.888c0,0-4.727,6.39-6.668,14.114c-1.334,5.309-1.556,14.892-1.556,14.892s4.001-5.001,6.223-12.558
			C81.149,43.778,80.927,34.888,80.927,34.888z"/>
		
			<path fill="none" stroke="#424242" stroke-width="2.585" stroke-linecap="round" stroke-linejoin="round" stroke-miterlimit="10" d="
			M78.11,40.662"/>
		
			<path fill="none" stroke="#424242" stroke-width="2.585" stroke-linecap="round" stroke-linejoin="round" stroke-miterlimit="10" d="
			M80.378,41.828"/>
		
			<line fill="none" stroke="#424242" stroke-width="2.585" stroke-linecap="round" stroke-linejoin="round" stroke-miterlimit="10" x1="79.722" y1="44.206" x2="77.654" y2="43.145"/>
		
			<line fill="none" stroke="#424242" stroke-width="2.585" stroke-linecap="round" stroke-linejoin="round" stroke-miterlimit="10" x1="78.721" y1="49.145" x2="74.796" y2="47.133"/>
		
			<line fill="none" stroke="#424242" stroke-width="2.585" stroke-linecap="round" stroke-linejoin="round" stroke-miterlimit="10" x1="78.055" y1="54.418" x2="74.13" y2="52.405"/>
		
			<path fill="none" stroke="#424242" stroke-width="2.585" stroke-linecap="round" stroke-linejoin="round" stroke-miterlimit="10" d="
			M74.13,55.739"/>
		
			<path fill="none" stroke="#424242" stroke-width="2.585" stroke-linecap="round" stroke-linejoin="round" stroke-miterlimit="10" d="
			M76.818,57.117"/>
		
			<path fill="none" stroke="#424242" stroke-width="2.585" stroke-linecap="round" stroke-linejoin="round" stroke-miterlimit="10" d="
			M82.5,28.298c0,0-2.983,0.366-3.778,1.255"/>
		
			<path fill="none" stroke="#424242" stroke-width="2.585" stroke-linecap="round" stroke-linejoin="round" stroke-miterlimit="10" d="
			M16.928,16.296c0,0-0.085,3.004,0.675,3.924"/>
		
			<circle fill="none" stroke="#424242" stroke-width="2.585" stroke-linecap="round" stroke-linejoin="round" stroke-miterlimit="10" cx="23.064" cy="58.388" r="16.535"/>
		
			<polyline fill="none" stroke="#424242" stroke-width="3" stroke-linecap="round" stroke-linejoin="round" stroke-miterlimit="10" points="
			12.837,64.938 23.5,58.344 23.5,45 		"/>
		
			<polyline fill="none" stroke="#424242" stroke-width="3" stroke-linecap="round" stroke-linejoin="round" stroke-miterlimit="10" points="
			20.5,41 20.5,37.5 26.5,37.5 26.5,41 		"/>
		
			<path fill="none" stroke="#424242" stroke-width="2.585" stroke-linecap="round" stroke-linejoin="round" stroke-miterlimit="10" d="
			M31.737,41.245c0,0,2.854,1.081,5.746,4.174c2.293,2.453,3.46,5.863,3.46,5.863l2.286-0.955c0,0,0.248-5.205-3.198-8.786
			c-3.447-3.581-7.68-2.373-7.68-2.373L31.737,41.245"/>
		
			<path fill="none" stroke="#424242" stroke-width="2.585" stroke-linecap="round" stroke-linejoin="round" stroke-miterlimit="10" d="
			M11.841,38.062c0,0,3.618-0.712,3.618,0.647c0,2.475-1.758,2.214-3.618,3.641"/>
	</g>
</g>
</svg>
