<?xml version="1.0" encoding="utf-8"?>
<!-- Generator: Adobe Illustrator 17.0.1, SVG Export Plug-In . SVG Version: 6.00 Build 0)  -->
<!DOCTYPE svg PUBLIC "-//W3C//DTD SVG 1.1//EN" "http://www.w3.org/Graphics/SVG/1.1/DTD/svg11.dtd">
<svg version="1.1" id="Layer_1" xmlns="http://www.w3.org/2000/svg" xmlns:xlink="http://www.w3.org/1999/xlink" x="0px" y="0px"
	 width="90px" height="90px" viewBox="0 0 90 90" enable-background="new 0 0 90 90" xml:space="preserve">
<g>
	
		<path fill="none" stroke="#424242" stroke-width="2.585" stroke-linecap="round" stroke-linejoin="round" stroke-miterlimit="10" d="
		M78.534,71.825L61.246,54.537c7.648-10.832,6.632-25.911-3.063-35.606c-10.839-10.839-28.413-10.839-39.252,0
		c-10.839,10.839-10.839,28.413,0,39.252c9.695,9.695,24.774,10.711,35.606,3.063l17.288,17.288c0.885,0.885,2.332,0.885,3.217,0
		l3.492-3.492C79.419,74.158,79.419,72.71,78.534,71.825z M24.917,52.05c-7.493-7.493-7.493-19.64,0-27.133
		c7.492-7.493,19.64-7.493,27.133,0c7.493,7.492,7.493,19.64,0,27.133C44.557,59.542,32.409,59.542,24.917,52.05z"/>
</g>
</svg>
