<?xml version="1.0" encoding="utf-8"?>
<!-- Generator: Adobe Illustrator 17.0.1, SVG Export Plug-In . SVG Version: 6.00 Build 0)  -->
<!DOCTYPE svg PUBLIC "-//W3C//DTD SVG 1.1//EN" "http://www.w3.org/Graphics/SVG/1.1/DTD/svg11.dtd">
<svg version="1.1" id="Layer_1" xmlns="http://www.w3.org/2000/svg" xmlns:xlink="http://www.w3.org/1999/xlink" x="0px" y="0px"
	 width="90px" height="90px" viewBox="0 0 90 90" enable-background="new 0 0 90 90" xml:space="preserve">
<g>
	
		<path fill="none" stroke="#424242" stroke-width="2.585" stroke-linecap="round" stroke-linejoin="round" stroke-miterlimit="10" d="
		M79.898,31.04H56.633V7.129H33.367V31.04H10.102v23.265h23.265v22.619h14.99c3.033,3.632,7.593,5.946,12.695,5.946
		c9.132,0,16.535-7.403,16.535-16.535c0-4.747-2.007-9.028-5.211-12.044l7.521,0.014V31.04z"/>
	
		<path fill="none" stroke="#424242" stroke-width="2.585" stroke-linecap="round" stroke-linejoin="round" stroke-miterlimit="10" d="
		M77.587,66.336c0,9.132-7.403,16.535-16.535,16.535s-16.535-7.403-16.535-16.535S51.92,49.8,61.052,49.8
		C68.961,49.8,77.587,57.203,77.587,66.336z"/>
	
		<polyline fill="none" stroke="#424242" stroke-width="2.585" stroke-linecap="round" stroke-linejoin="round" stroke-miterlimit="10" points="
		57.821,49.489 57.821,45.611 64.283,45.611 64.283,48.843 	"/>
	
		<polyline fill="none" stroke="#424242" stroke-width="2.585" stroke-linecap="round" stroke-linejoin="round" stroke-miterlimit="10" points="
		50.337,73.095 61,66.292 61,53.367 	"/>
</g>
</svg>
