<?xml version="1.0" encoding="utf-8"?>
<!-- Generator: Adobe Illustrator 17.0.1, SVG Export Plug-In . SVG Version: 6.00 Build 0)  -->
<!DOCTYPE svg PUBLIC "-//W3C//DTD SVG 1.1//EN" "http://www.w3.org/Graphics/SVG/1.1/DTD/svg11.dtd">
<svg version="1.1" id="Layer_1" xmlns="http://www.w3.org/2000/svg" xmlns:xlink="http://www.w3.org/1999/xlink" x="0px" y="0px"
	 width="90px" height="90px" viewBox="0 0 90 90" enable-background="new 0 0 90 90" xml:space="preserve">
<g>
	<polygon fill="#1FA5AD" points="59.624,27.592 51.262,36 82,36 82,58 51.262,58 59.624,66.449 42.667,82.593 6.935,46.876 
		42.496,11.303 	"/>
	<polygon fill="#F97159" points="52.178,24.044 38.046,38 77,38 77,48 38.482,48 52.085,61.828 45.075,68.95 18.887,42.818 
		44.991,16.742 	"/>
	<polygon fill="#DB6252" points="77,43 77,48 38.482,48 52.085,61.828 45.075,68.998 19.12,43 	"/>
	
		<polygon fill="none" stroke="#424242" stroke-width="2.585" stroke-linecap="round" stroke-linejoin="round" stroke-miterlimit="10" points="
		52.178,24.104 38.046,38.062 76.065,38.062 76.065,48.511 38.482,48.511 52.085,62.113 45.075,69.123 18.887,42.934 44.991,16.83 	
		"/>
	
		<polygon fill="none" stroke="#424242" stroke-width="2.585" stroke-linecap="round" stroke-linejoin="round" stroke-miterlimit="10" points="
		61.624,23.633 53.262,32.081 83.065,32.081 83.065,54.12 53.262,54.12 61.624,62.509 44.667,78.623 8.935,42.891 44.496,7.33 	"/>
</g>
</svg>
