<?xml version="1.0" encoding="utf-8"?>
<!-- Generator: Adobe Illustrator 17.0.1, SVG Export Plug-In . SVG Version: 6.00 Build 0)  -->
<!DOCTYPE svg PUBLIC "-//W3C//DTD SVG 1.1//EN" "http://www.w3.org/Graphics/SVG/1.1/DTD/svg11.dtd">
<svg version="1.1" id="Layer_1" xmlns="http://www.w3.org/2000/svg" xmlns:xlink="http://www.w3.org/1999/xlink" x="0px" y="0px"
	 width="90px" height="90px" viewBox="0 0 90 90" enable-background="new 0 0 90 90" xml:space="preserve">
<g>
	<rect x="9.984" y="16.084" fill="#E2EAED" width="73.027" height="64.207"/>
	<rect x="63.365" y="33.013" fill="#CDD4D7" width="19.603" height="47.27"/>
	<rect x="9.904" y="16.293" fill="#FDD074" width="73.027" height="18.39"/>
	<rect x="63.365" y="16.293" fill="#E3BD6A" width="19.603" height="18.39"/>
	
		<rect x="7.317" y="13.496" fill="none" stroke="#424242" stroke-width="2.585" stroke-linecap="round" stroke-linejoin="round" stroke-miterlimit="10" width="74.32" height="64.626"/>
	
		<line fill="none" stroke="#424242" stroke-width="3" stroke-linecap="round" stroke-linejoin="round" stroke-miterlimit="10" x1="7" y1="33.5" x2="81" y2="33.5"/>
	
		<line fill="none" stroke="#424242" stroke-width="3" stroke-linecap="round" stroke-linejoin="round" stroke-miterlimit="10" x1="18.5" y1="17" x2="18.5" y2="10"/>
	
		<line fill="none" stroke="#424242" stroke-width="3" stroke-linecap="round" stroke-linejoin="round" stroke-miterlimit="10" x1="23.5" y1="17" x2="23.5" y2="10"/>
	<rect x="18.093" y="38.486" fill="#FDD074" width="7.971" height="7.971"/>
	
		<line fill="none" stroke="#424242" stroke-width="3" stroke-linecap="round" stroke-linejoin="round" stroke-miterlimit="10" x1="65.5" y1="17" x2="65.5" y2="10"/>
	
		<line fill="none" stroke="#424242" stroke-width="3" stroke-linecap="round" stroke-linejoin="round" stroke-miterlimit="10" x1="71.5" y1="17" x2="71.5" y2="10"/>
	<rect x="18.093" y="52.663" fill="#F97159" width="7.971" height="7.971"/>
	
		<rect x="16.152" y="37.192" fill="none" stroke="#424242" stroke-width="2.585" stroke-linecap="round" stroke-linejoin="round" stroke-miterlimit="10" width="7.971" height="7.971"/>
	<rect x="33.655" y="38.486" fill="#FDD074" width="7.971" height="7.971"/>
	
		<rect x="31.777" y="37.192" fill="none" stroke="#424242" stroke-width="2.585" stroke-linecap="round" stroke-linejoin="round" stroke-miterlimit="10" width="7.971" height="7.971"/>
	<rect x="49.38" y="38.486" fill="#F97159" width="7.971" height="7.971"/>
	
		<rect x="47.634" y="37.192" fill="none" stroke="#424242" stroke-width="2.585" stroke-linecap="round" stroke-linejoin="round" stroke-miterlimit="10" width="7.971" height="7.971"/>
	<rect x="65.322" y="38.486" fill="#FDD074" width="7.971" height="7.971"/>
	
		<rect x="63.365" y="37.192" fill="none" stroke="#424242" stroke-width="2.585" stroke-linecap="round" stroke-linejoin="round" stroke-miterlimit="10" width="7.971" height="7.971"/>
	
		<rect x="16.152" y="51.403" fill="none" stroke="#424242" stroke-width="2.585" stroke-linecap="round" stroke-linejoin="round" stroke-miterlimit="10" width="7.971" height="7.971"/>
	<rect x="33.655" y="52.663" fill="#FDD074" width="7.971" height="7.971"/>
	
		<rect x="31.777" y="51.403" fill="none" stroke="#424242" stroke-width="2.585" stroke-linecap="round" stroke-linejoin="round" stroke-miterlimit="10" width="7.971" height="7.971"/>
	<rect x="50.027" y="52.663" fill="#FDD074" width="7.971" height="7.971"/>
	
		<rect x="47.634" y="51.403" fill="none" stroke="#424242" stroke-width="2.585" stroke-linecap="round" stroke-linejoin="round" stroke-miterlimit="10" width="7.971" height="7.971"/>
	<rect x="65.322" y="52.663" fill="#FDD074" width="7.971" height="7.971"/>
	
		<rect x="63.365" y="51.403" fill="none" stroke="#424242" stroke-width="2.585" stroke-linecap="round" stroke-linejoin="round" stroke-miterlimit="10" width="7.971" height="7.971"/>
	<rect x="18.093" y="66.342" fill="#FDD074" width="7.971" height="7.971"/>
	
		<rect x="16.152" y="65.195" fill="none" stroke="#424242" stroke-width="2.585" stroke-linecap="round" stroke-linejoin="round" stroke-miterlimit="10" width="7.971" height="7.971"/>
	<rect x="33.655" y="66.342" fill="#F97159" width="7.971" height="7.971"/>
	
		<rect x="31.777" y="65.195" fill="none" stroke="#424242" stroke-width="2.585" stroke-linecap="round" stroke-linejoin="round" stroke-miterlimit="10" width="7.971" height="7.971"/>
</g>
</svg>
