<?xml version="1.0" encoding="utf-8"?>
<!-- Generator: Adobe Illustrator 17.0.1, SVG Export Plug-In . SVG Version: 6.00 Build 0)  -->
<!DOCTYPE svg PUBLIC "-//W3C//DTD SVG 1.1//EN" "http://www.w3.org/Graphics/SVG/1.1/DTD/svg11.dtd">
<svg version="1.1" id="Layer_1" xmlns="http://www.w3.org/2000/svg" xmlns:xlink="http://www.w3.org/1999/xlink" x="0px" y="0px"
	 width="90px" height="90px" viewBox="0 0 90 90" enable-background="new 0 0 90 90" xml:space="preserve">
<g>
	<g>
		
			<path fill="none" stroke="#424242" stroke-width="2.585" stroke-linecap="round" stroke-linejoin="round" stroke-miterlimit="10" d="
			M67.724,49.886c1.23,0,2.426,0.145,3.579,0.399c9.069-12.644,14.377-26.998,3.851-37.524C59.34-3.053,43.213,19.854,43.213,19.854
			S28.068-3.41,11.896,12.762c-22.473,22.473,31.317,66.112,31.317,66.112s3.688-2.836,8.754-7.44
			c-0.503-1.581-0.778-3.264-0.778-5.012C51.189,57.289,58.592,49.886,67.724,49.886z"/>
		
			<path fill="none" stroke="#424242" stroke-width="2.585" stroke-linecap="round" stroke-linejoin="round" stroke-miterlimit="10" d="
			M71.304,50.285c-1.154-0.255-2.349-0.399-3.579-0.399c-9.132,0-16.535,7.403-16.535,16.535c0,1.748,0.276,3.431,0.778,5.012
			c2.123,6.681,8.373,11.523,15.757,11.523c9.132,0,16.535-7.403,16.535-16.535C84.26,58.52,78.713,51.922,71.304,50.285z"/>
	</g>
	
		<polyline fill="none" stroke="#424242" stroke-width="2.585" stroke-linecap="round" stroke-linejoin="round" stroke-miterlimit="10" points="
		63.795,49.575 63.795,45.697 70.258,45.697 70.258,48.928 	"/>
	
		<polyline fill="none" stroke="#424242" stroke-width="2.585" stroke-linecap="round" stroke-linejoin="round" stroke-miterlimit="10" points="
		57.009,73.18 67.673,66.377 67.673,53.452 	"/>
</g>
</svg>
