<?xml version="1.0" encoding="utf-8"?>
<!-- Generator: Adobe Illustrator 17.0.1, SVG Export Plug-In . SVG Version: 6.00 Build 0)  -->
<!DOCTYPE svg PUBLIC "-//W3C//DTD SVG 1.1//EN" "http://www.w3.org/Graphics/SVG/1.1/DTD/svg11.dtd">
<svg version="1.1" id="Layer_1" xmlns="http://www.w3.org/2000/svg" xmlns:xlink="http://www.w3.org/1999/xlink" x="0px" y="0px"
	 width="90px" height="90px" viewBox="0 0 90 90" enable-background="new 0 0 90 90" xml:space="preserve">
<g>
	<circle fill="#E2EAED" cx="40.022" cy="38.171" r="19.498"/>
	<path fill="#1FB6BE" d="M80.307,71.825L63.02,54.537c7.648-10.832,6.632-25.911-3.063-35.606
		c-10.839-10.839-28.413-10.839-39.252,0c-10.839,10.839-10.839,28.413,0,39.252c9.695,9.695,24.774,10.711,35.606,3.063
		l17.288,17.288c0.885,0.885,2.332,0.885,3.217,0l3.492-3.492C81.192,74.158,81.192,72.71,80.307,71.825z M26.69,52.05
		c-7.493-7.493-7.493-19.64,0-27.133c7.492-7.493,19.64-7.493,27.133,0c7.493,7.492,7.493,19.64,0,27.133
		C46.33,59.542,34.183,59.542,26.69,52.05z"/>
	
		<path fill="none" stroke="#424242" stroke-width="2.585" stroke-linecap="round" stroke-linejoin="round" stroke-miterlimit="10" d="
		M76.761,71.825L59.473,54.537c7.648-10.832,6.632-25.911-3.063-35.606c-10.839-10.839-28.413-10.839-39.252,0
		c-10.839,10.839-10.839,28.413,0,39.252c9.695,9.695,24.774,10.711,35.606,3.063l17.288,17.288c0.885,0.885,2.332,0.885,3.217,0
		l3.492-3.492C77.646,74.158,77.646,72.71,76.761,71.825z M23.144,52.05c-7.493-7.493-7.493-19.64,0-27.133
		c7.492-7.493,19.64-7.493,27.133,0c7.493,7.492,7.493,19.64,0,27.133C42.784,59.542,30.636,59.542,23.144,52.05z"/>
	<path fill="#CDD4D7" d="M52.559,28.853c10.791,15.981-3.977,28.378-13.607,28.378c-9.934,0-14.045-6.245-15.068-8.698
		C37.901,60.362,54.727,46.811,52.559,28.853z"/>
	
		<path fill="none" stroke="#424242" stroke-width="2.585" stroke-linecap="round" stroke-linejoin="round" stroke-miterlimit="10" d="
		M76.761,71.825L59.473,54.537c7.648-10.832,6.632-25.911-3.063-35.606c-10.839-10.839-28.413-10.839-39.252,0
		c-10.839,10.839-10.839,28.413,0,39.252c9.695,9.695,24.774,10.711,35.606,3.063l17.288,17.288c0.885,0.885,2.332,0.885,3.217,0
		l3.492-3.492C77.646,74.158,77.646,72.71,76.761,71.825z M23.144,52.05c-7.493-7.493-7.493-19.64,0-27.133
		c7.492-7.493,19.64-7.493,27.133,0c7.493,7.492,7.493,19.64,0,27.133C42.784,59.542,30.636,59.542,23.144,52.05z"/>
</g>
</svg>
