<?xml version="1.0" encoding="utf-8"?>
<!-- Generator: Adobe Illustrator 17.0.1, SVG Export Plug-In . SVG Version: 6.00 Build 0)  -->
<!DOCTYPE svg PUBLIC "-//W3C//DTD SVG 1.1//EN" "http://www.w3.org/Graphics/SVG/1.1/DTD/svg11.dtd">
<svg version="1.1" id="Layer_1" xmlns="http://www.w3.org/2000/svg" xmlns:xlink="http://www.w3.org/1999/xlink" x="0px" y="0px"
	 width="90px" height="90px" viewBox="0 0 90 90" enable-background="new 0 0 90 90" xml:space="preserve">
<g>
	<path fill="#E2EAED" d="M43.499,9.006C22.441,9.006,5.37,22.677,5.37,39.541c0,7.75,3.612,14.821,9.553,20.206l-0.02-0.01
		c0,0,2.1,4.524,0.969,8.079c-1.131,3.554-7.546,6.139-7.974,7.917c-0.428,1.777,5.066,4.201,14.113,0s10.311-6.989,10.311-6.989
		l-0.006-0.003c3.537,0.868,7.291,1.337,11.183,1.337c21.058,0,38.129-13.671,38.129-30.536S64.558,9.006,43.499,9.006z"/>
	<path fill="#CDD4D7" d="M32.316,68.74c3.537,0.868,7.291,1.337,11.183,1.337c21.058,0,38.129-13.671,38.129-30.536
		c0-9.92-5.907-18.735-15.057-24.313C77.213,56.236,32.316,68.74,32.316,68.74z"/>
	
		<path fill="none" stroke="#424242" stroke-width="2.585" stroke-linecap="round" stroke-linejoin="round" stroke-miterlimit="10" d="
		M40.914,6.421c-21.058,0-38.129,13.671-38.129,30.536c0,7.75,3.612,14.821,9.553,20.206l-0.02-0.01c0,0,2.1,4.524,0.969,8.079
		c-1.131,3.554-7.546,6.139-7.974,7.917c-0.428,1.777,5.066,4.201,14.113,0s10.311-6.989,10.311-6.989l-0.006-0.003
		c3.537,0.868,7.291,1.337,11.183,1.337c21.058,0,38.129-13.671,38.129-30.536S61.973,6.421,40.914,6.421z"/>
	<path fill="#1FB6BE" d="M63.418,40.483c13.142,0,23.797,8.532,23.797,19.057c0,4.837-2.254,9.25-5.962,12.61l0.012-0.006
		c0,0-1.311,2.824-0.605,5.042c0.706,2.218,4.71,3.832,4.976,4.941s-3.161,2.622-8.808,0s-6.435-4.362-6.435-4.362l0.004-0.002
		c-2.207,0.542-4.55,0.835-6.979,0.835c-13.142,0-23.797-8.532-23.797-19.057S50.276,40.483,63.418,40.483z"/>
	<path fill="#1FA5AD" d="M67.427,76.844c-2.008,0.493-4.14,0.759-6.35,0.759c-11.958,0-21.652-7.763-21.652-17.34
		c0-5.633,3.354-10.639,8.55-13.806C41.933,69.744,67.427,76.844,67.427,76.844z"/>
	
		<path fill="none" stroke="#424242" stroke-width="2.585" stroke-linecap="round" stroke-linejoin="round" stroke-miterlimit="10" d="
		M60.833,39.191c13.142,0,23.797,8.532,23.797,19.057c0,4.837-2.254,9.25-5.962,12.61l0.012-0.006c0,0-1.311,2.824-0.605,5.042
		c0.706,2.218,4.71,3.832,4.976,4.941s-3.161,2.622-8.808,0s-6.435-4.362-6.435-4.362l0.004-0.002
		c-2.207,0.542-4.55,0.835-6.979,0.835c-13.142,0-23.797-8.532-23.797-19.057S47.691,39.191,60.833,39.191z"/>
	<circle fill="#F97159" cx="51.82" cy="59.979" r="2.989"/>
	<circle fill="#F97159" cx="62.16" cy="59.979" r="2.989"/>
	<circle fill="#F97159" cx="72.5" cy="59.979" r="2.989"/>
	
		<circle fill="none" stroke="#424242" stroke-width="2.585" stroke-linecap="round" stroke-linejoin="round" stroke-miterlimit="10" cx="51.174" cy="58.687" r="2.989"/>
	
		<circle fill="none" stroke="#424242" stroke-width="2.585" stroke-linecap="round" stroke-linejoin="round" stroke-miterlimit="10" cx="61.514" cy="58.687" r="2.989"/>
	
		<circle fill="none" stroke="#424242" stroke-width="2.585" stroke-linecap="round" stroke-linejoin="round" stroke-miterlimit="10" cx="71.854" cy="58.687" r="2.989"/>
</g>
</svg>
