<?xml version="1.0" encoding="utf-8"?>
<!-- Generator: Adobe Illustrator 17.0.1, SVG Export Plug-In . SVG Version: 6.00 Build 0)  -->
<!DOCTYPE svg PUBLIC "-//W3C//DTD SVG 1.1//EN" "http://www.w3.org/Graphics/SVG/1.1/DTD/svg11.dtd">
<svg version="1.1" id="Layer_1" xmlns="http://www.w3.org/2000/svg" xmlns:xlink="http://www.w3.org/1999/xlink" x="0px" y="0px"
	 width="90px" height="90px" viewBox="0 0 90 90" enable-background="new 0 0 90 90" xml:space="preserve">
<g>
	
		<path fill="none" stroke="#424242" stroke-width="2.585" stroke-linecap="round" stroke-linejoin="round" stroke-miterlimit="10" d="
		M58.248,15.915v-3.878h-6.374c0,0-0.833-6.456-6.872-6.456s-6.872,6.456-6.872,6.456h-7.671v3.878H16.888v68.503h56.224V15.915
		H58.248z"/>
	
		<line fill="none" stroke="#424242" stroke-width="2.585" stroke-linecap="round" stroke-linejoin="round" stroke-miterlimit="10" x1="33.044" y1="30.779" x2="46.616" y2="30.779"/>
	
		<line fill="none" stroke="#424242" stroke-width="2.585" stroke-linecap="round" stroke-linejoin="round" stroke-miterlimit="10" x1="33.044" y1="36.595" x2="53.078" y2="36.595"/>
	
		<line fill="none" stroke="#424242" stroke-width="2.585" stroke-linecap="round" stroke-linejoin="round" stroke-miterlimit="10" x1="33.044" y1="43.058" x2="45.323" y2="43.058"/>
	
		<line fill="none" stroke="#424242" stroke-width="2.585" stroke-linecap="round" stroke-linejoin="round" stroke-miterlimit="10" x1="33.044" y1="49.52" x2="55.663" y2="49.52"/>
	
		<line fill="none" stroke="#424242" stroke-width="2.585" stroke-linecap="round" stroke-linejoin="round" stroke-miterlimit="10" x1="50.493" y1="65.677" x2="58.248" y2="65.677"/>
	
		<circle fill="none" stroke="#424242" stroke-width="2.585" stroke-linecap="round" stroke-linejoin="round" stroke-miterlimit="10" cx="45.25" cy="13.446" r="0.872"/>
	
		<polyline fill="none" stroke="#424242" stroke-width="3" stroke-linecap="round" stroke-linejoin="round" stroke-miterlimit="10" points="
		25.5,16 25.5,74.5 63.5,74.5 63.5,16 	"/>
	
		<polyline fill="none" stroke="#424242" stroke-width="3" stroke-linecap="round" stroke-linejoin="round" stroke-miterlimit="10" points="
		30.5,14 30.5,23.5 58.5,23.5 58.5,14 	"/>
</g>
</svg>
