<?xml version="1.0" encoding="utf-8"?>
<!-- Generator: Adobe Illustrator 17.0.1, SVG Export Plug-In . SVG Version: 6.00 Build 0)  -->
<!DOCTYPE svg PUBLIC "-//W3C//DTD SVG 1.1//EN" "http://www.w3.org/Graphics/SVG/1.1/DTD/svg11.dtd">
<svg version="1.1" id="Layer_1" xmlns="http://www.w3.org/2000/svg" xmlns:xlink="http://www.w3.org/1999/xlink" x="0px" y="0px"
	 width="90px" height="90px" viewBox="0 0 90 90" enable-background="new 0 0 90 90" xml:space="preserve">
<g>
	<path fill="#F97159" d="M35.964,47.302c0,0-13.792,8.857-18.505,27.168c0,0,9.943,5.423,29.07,5.423s29.07-5.7,29.07-5.7
		s-9.391-23.715-18.505-26.892c0,0-3.175,4.739-10.565,4.739S35.964,47.302,35.964,47.302z"/>
	<path fill="#DB6252" d="M27.781,78.071c4.616,1.002,10.664,1.822,18.102,1.822c19.127,0,29.07-5.7,29.07-5.7
		s-4.182-10.562-9.674-18.533C62.541,51.688,71.077,71.724,27.781,78.071z"/>
	<path fill="#FDD074" d="M46.726,12.03c8.365,0,13.199,7.734,13.199,14.086s-1.401,19.342-13.199,19.342
		s-13.731-10.089-13.731-18.79S39.466,12.03,46.726,12.03z"/>
	<path fill="#E3BD6A" d="M53.3,14.583c0.149-3.812,4.087,6.564,4.087,9.977c0,6.185-1.364,18.832-12.851,18.832
		c-3.545,0-6.175-0.935-8.117-2.478C32.067,37.458,52.171,43.392,53.3,14.583z"/>
	
		<path fill="none" stroke="#424242" stroke-width="2.585" stroke-linecap="round" stroke-linejoin="round" stroke-miterlimit="10" d="
		M43.737,10.107c8.365,0,13.199,7.734,13.199,14.086s-1.401,19.342-13.199,19.342s-13.731-10.089-13.731-18.79
		S36.477,10.107,43.737,10.107z"/>
	
		<path fill="none" stroke="#424242" stroke-width="2.585" stroke-linecap="round" stroke-linejoin="round" stroke-miterlimit="10" d="
		M32.907,45.736c0,0-13.792,8.857-18.505,27.168c0,0,9.943,5.423,29.07,5.423s29.07-5.7,29.07-5.7S63.15,48.912,54.036,45.736
		c0,0-3.175,4.739-10.565,4.739S32.907,45.736,32.907,45.736z"/>
</g>
</svg>
