<?xml version="1.0" encoding="utf-8"?>
<!-- Generator: Adobe Illustrator 17.0.1, SVG Export Plug-In . SVG Version: 6.00 Build 0)  -->
<!DOCTYPE svg PUBLIC "-//W3C//DTD SVG 1.1//EN" "http://www.w3.org/Graphics/SVG/1.1/DTD/svg11.dtd">
<svg version="1.1" id="Layer_1" xmlns="http://www.w3.org/2000/svg" xmlns:xlink="http://www.w3.org/1999/xlink" x="0px" y="0px"
	 width="90px" height="90px" viewBox="0 0 90 90" enable-background="new 0 0 90 90" xml:space="preserve">
<g>
	
		<path fill="none" stroke="#424242" stroke-width="2.585" stroke-linecap="round" stroke-linejoin="round" stroke-miterlimit="10" d="
		M85.452,29.088c-1-0.5-4.417,0-4.417,0s-13.252-7.751-26.671-11.835c-13.419-4.084-24.921-2.584-29.755-1.917
		c-4.834,0.667-5.103-1.629-6.834-0.667c-1.5,0.833-0.917,4.251-0.917,4.251s-2.75,5.918-4.001,10.335
		c-0.64,2.262-0.995,5.986-1.213,9.454c-1.577,0.353-3.377,1.042-4.938,2.385c-3.767,3.243-2.796,7.537-2.796,7.537l2.039,0.728
		c0,0,1.238-2.79,4.487-5.505c0.317-0.265,0.647-0.511,0.983-0.741c-0.061,1.433-0.104,2.611-0.146,3.312
		c-0.019,0.31-0.056,0.616-0.101,0.921c-2.99,2.992-4.84,7.124-4.84,11.689c0,9.132,7.403,16.535,16.535,16.535
		c6.885,0,12.782-4.209,15.27-10.193c2.074,0.708,4.219,1.376,6.411,1.969c16.022,4.334,25.401,1.75,26.402,1.75
		s2.417,1.917,4.001,0.75c1.583-1.167,1.083-4.167,1.083-4.167s0.583-0.667,2.667-4.918s5.168-17.586,5.084-20.67
		c-0.083-3.084,0.667-3.751,1.667-6.001C86.453,31.839,86.453,29.589,85.452,29.088z"/>
	
		<path fill="none" stroke="#424242" stroke-width="2.585" stroke-linecap="round" stroke-linejoin="round" stroke-miterlimit="10" d="
		M80.729,35.534c0,0-4.727,6.39-6.668,14.114c-1.334,5.309-1.556,14.892-1.556,14.892s4.001-5.001,6.223-12.558
		S80.729,35.534,80.729,35.534z"/>
	
		<path fill="none" stroke="#424242" stroke-width="2.585" stroke-linecap="round" stroke-linejoin="round" stroke-miterlimit="10" d="
		M77.913,41.308"/>
	
		<path fill="none" stroke="#424242" stroke-width="2.585" stroke-linecap="round" stroke-linejoin="round" stroke-miterlimit="10" d="
		M80.18,42.474"/>
	
		<line fill="none" stroke="#424242" stroke-width="2.585" stroke-linecap="round" stroke-linejoin="round" stroke-miterlimit="10" x1="79.524" y1="44.852" x2="77.456" y2="43.792"/>
	
		<line fill="none" stroke="#424242" stroke-width="2.585" stroke-linecap="round" stroke-linejoin="round" stroke-miterlimit="10" x1="78.524" y1="49.791" x2="74.599" y2="47.779"/>
	
		<line fill="none" stroke="#424242" stroke-width="2.585" stroke-linecap="round" stroke-linejoin="round" stroke-miterlimit="10" x1="77.857" y1="55.064" x2="73.932" y2="53.052"/>
	
		<path fill="none" stroke="#424242" stroke-width="2.585" stroke-linecap="round" stroke-linejoin="round" stroke-miterlimit="10" d="
		M73.932,56.386"/>
	
		<path fill="none" stroke="#424242" stroke-width="2.585" stroke-linecap="round" stroke-linejoin="round" stroke-miterlimit="10" d="
		M76.621,57.764"/>
	
		<path fill="none" stroke="#424242" stroke-width="2.585" stroke-linecap="round" stroke-linejoin="round" stroke-miterlimit="10" d="
		M82.302,28.945c0,0-2.983,0.366-3.778,1.255"/>
	
		<path fill="none" stroke="#424242" stroke-width="2.585" stroke-linecap="round" stroke-linejoin="round" stroke-miterlimit="10" d="
		M16.731,16.942c0,0-0.085,3.004,0.675,3.924"/>
	
		<circle fill="none" stroke="#424242" stroke-width="2.585" stroke-linecap="round" stroke-linejoin="round" stroke-miterlimit="10" cx="22.867" cy="59.035" r="16.535"/>
	
		<polyline fill="none" stroke="#424242" stroke-width="3" stroke-linecap="round" stroke-linejoin="round" stroke-miterlimit="10" points="
		11.837,65.761 22.5,58.991 22.5,46 	"/>
	
		<polyline fill="none" stroke="#424242" stroke-width="3" stroke-linecap="round" stroke-linejoin="round" stroke-miterlimit="10" points="
		19.5,42 19.5,38.5 25.5,38.5 25.5,42 	"/>
	
		<path fill="none" stroke="#424242" stroke-width="2.585" stroke-linecap="round" stroke-linejoin="round" stroke-miterlimit="10" d="
		M31.54,41.891c0,0,2.854,1.081,5.746,4.174c2.293,2.453,3.46,5.863,3.46,5.863l2.286-0.955c0,0,0.248-5.205-3.198-8.786
		c-3.447-3.581-7.68-2.373-7.68-2.373L31.54,41.891"/>
	
		<path fill="none" stroke="#424242" stroke-width="2.585" stroke-linecap="round" stroke-linejoin="round" stroke-miterlimit="10" d="
		M11.643,38.709c0,0,3.618-0.712,3.618,0.647c0,2.475-1.758,2.214-3.618,3.641"/>
</g>
</svg>
