<?xml version="1.0" encoding="utf-8"?>
<!-- Generator: Adobe Illustrator 17.0.1, SVG Export Plug-In . SVG Version: 6.00 Build 0)  -->
<!DOCTYPE svg PUBLIC "-//W3C//DTD SVG 1.1//EN" "http://www.w3.org/Graphics/SVG/1.1/DTD/svg11.dtd">
<svg version="1.1" id="Layer_1" xmlns="http://www.w3.org/2000/svg" xmlns:xlink="http://www.w3.org/1999/xlink" x="0px" y="0px"
	 width="90px" height="90px" viewBox="0 0 90 90" enable-background="new 0 0 90 90" xml:space="preserve">
<g>
	<path fill="#FDD074" d="M46.226,14.239c8.365,0,13.199,7.734,13.199,14.086s-1.401,19.342-13.199,19.342
		s-13.731-10.089-13.731-18.79S38.966,14.239,46.226,14.239z"/>
	<path fill="#E3BD6A" d="M52.8,16.792c0.149-3.812,4.087,6.564,4.087,9.977c0,6.185-1.364,18.832-12.851,18.832
		c-3.545,0-6.175-0.935-8.117-2.478C31.567,39.667,51.671,45.601,52.8,16.792z"/>
	<path fill="#E2EAED" d="M33,26h27.573c0,0-0.137-6.215-0.137-10.215s-6.649-6.858-13.649-6.858S33,9.57,33,17.57S33,26,33,26z"/>
	<path fill="#CDD4D7" d="M38.574,26h22c0,0-0.137-6.215-0.137-10.215c0-2.297-2.263-4.24-5.515-5.464
		C51.407,23.851,38.574,26,38.574,26z"/>
	<path fill="#E2EAED" d="M35.464,49.511c0,0-13.792,8.857-18.505,27.168c0,0,9.943,5.423,29.07,5.423s29.07-5.7,29.07-5.7
		s-9.391-23.715-18.505-26.892c0,0-3.175,4.739-10.565,4.739S35.464,49.511,35.464,49.511z"/>
	<path fill="#CDD4D7" d="M27.281,80.28c4.616,1.002,10.664,1.822,18.102,1.822c19.127,0,29.07-5.7,29.07-5.7
		S70.27,65.84,64.779,57.87C62.041,53.897,70.577,73.932,27.281,80.28z"/>
	
		<path fill="none" stroke="#424242" stroke-width="2.585" stroke-linecap="round" stroke-linejoin="round" stroke-miterlimit="10" d="
		M33.407,47.945c0,0-13.792,8.857-18.505,27.168c0,0,9.943,5.423,29.07,5.423s29.07-5.7,29.07-5.7S63.65,51.121,54.536,47.945
		l-10.565,4.739L33.407,47.945z"/>
	
		<line fill="#FFFFFA" stroke="#424242" stroke-width="3" stroke-linecap="round" stroke-linejoin="round" stroke-miterlimit="10" x1="44.5" y1="53" x2="44.5" y2="79"/>
	
		<rect x="49.823" y="62.32" fill="none" stroke="#424242" stroke-width="3" stroke-linecap="round" stroke-linejoin="round" stroke-miterlimit="10" width="12" height="9.75"/>
	<path fill="none" stroke="#424242" stroke-width="3" stroke-linecap="round" stroke-linejoin="round" stroke-miterlimit="10" d="
		M57.573,24.5c0,0-0.137-5.965-0.137-9.965s-6.399-6.733-13.399-6.733S30.5,8.57,30.5,16.57s0,7.93,0,7.93h0.193
		c-0.111,0-0.186,1.595-0.186,2.419c0,8.7,1.933,18.807,13.731,18.807S57.436,32.71,57.436,26.358c0-0.6-0.057-1.858-0.142-1.858
		H57.573z"/>
	
		<line fill="#FFFFFA" stroke="#424242" stroke-width="3" stroke-linecap="round" stroke-linejoin="round" stroke-miterlimit="10" x1="44.5" y1="14" x2="44.5" y2="19"/>
	
		<line fill="none" stroke="#424242" stroke-width="3" stroke-linecap="round" stroke-linejoin="round" stroke-miterlimit="10" x1="42" y1="16.5" x2="47" y2="16.5"/>
	
		<line fill="none" stroke="#424242" stroke-width="3" stroke-linecap="round" stroke-linejoin="round" stroke-miterlimit="10" x1="31" y1="24.5" x2="58" y2="24.5"/>
</g>
</svg>
