<?xml version="1.0" encoding="utf-8"?>
<!-- Generator: Adobe Illustrator 17.0.1, SVG Export Plug-In . SVG Version: 6.00 Build 0)  -->
<!DOCTYPE svg PUBLIC "-//W3C//DTD SVG 1.1//EN" "http://www.w3.org/Graphics/SVG/1.1/DTD/svg11.dtd">
<svg version="1.1" id="Layer_1" xmlns="http://www.w3.org/2000/svg" xmlns:xlink="http://www.w3.org/1999/xlink" x="0px" y="0px"
	 width="90px" height="90px" viewBox="0 0 90 90" enable-background="new 0 0 90 90" xml:space="preserve">
<g>
	<path fill="#F97159" d="M35.152,77.293c0-0.623-0.005-1.12,0.001-1.617c0.03-2.558-0.043-5.123,0.123-7.672
		c0.168-2.578,1.254-4.772,3.406-6.339c0.043-0.031,0.068-0.085,0.123-0.156c-0.105-0.014-0.165-0.024-0.225-0.031
		c-3.187-0.364-6.334-0.914-9.318-2.141c-5.33-2.191-8.826-6.04-10.426-11.599c-0.673-2.337-0.98-4.726-1.091-7.144
		c-0.078-1.696-0.026-3.39,0.295-5.065c0.604-3.144,1.991-5.895,4.158-8.25c0.165-0.179,0.225-0.326,0.134-0.575
		c-1.416-3.89-1.001-7.709,0.475-11.48c0.045-0.115,0.201-0.265,0.306-0.266c1.111-0.008,2.222-0.068,3.318,0.244
		c3.036,0.862,5.781,2.322,8.4,4.041c0.356,0.234,0.661,0.296,1.081,0.188c3.094-0.798,6.241-1.257,9.435-1.355
		c4.134-0.128,8.204,0.357,12.21,1.382c0.367,0.094,0.643,0.022,0.952-0.184c1.975-1.314,4.029-2.494,6.231-3.387
		c1.483-0.601,2.99-1.152,4.642-1.031c1.027,0.075,1.026,0.067,1.352,1.023c1.203,3.524,1.493,7.076,0.284,10.66
		c-0.122,0.362-0.066,0.58,0.184,0.857c2.499,2.769,3.945,6.019,4.268,9.733c0.294,3.371,0.001,6.709-0.844,9.988
		c-1.224,4.75-3.867,8.457-8.146,10.934c-3.187,1.845-6.669,2.771-10.29,3.25c-0.56,0.074-1.122,0.131-1.742,0.203
		c1.945,1.746,2.613,2.646,3.192,4.319c0.419,1.212,0.594,2.468,0.596,3.747c0.005,2.527,0.001,4.753,0.001,7.346"/>
	<path fill="#DB6252" d="M42.784,77.461c6.112-6.61,9.851-10.637,9.286-17.401c0,0,10.955-6.57,11.629-16.295
		c1.592-22.961-21.815-25.608-18.425-25.713c4.116-0.127,8.169,0.352,12.157,1.368c0.345,0.088,0.708,0.027,1.005-0.171
		c1.975-1.314,4.029-2.494,6.231-3.387c1.483-0.601,2.99-1.152,4.642-1.031c1.027,0.075,1.026,0.067,1.352,1.023
		c1.203,3.523,1.493,7.074,0.285,10.657c-0.1,0.296-0.034,0.62,0.175,0.851c2.504,2.771,3.952,6.024,4.276,9.742
		c0.294,3.371,0.001,6.709-0.844,9.988c-1.224,4.75-3.867,8.457-8.146,10.934c-3.187,1.845-6.669,2.771-10.29,3.25
		c-0.56,0.074-1.122,0.131-1.742,0.203c1.922,1.725,2.597,2.625,3.171,4.259c0.41,1.169,0.614,2.405,0.617,3.644
		c0.005,2.582,0.002,4.861,0.002,7.509"/>
	
		<path fill="none" stroke="#424242" stroke-width="2.585" stroke-linecap="round" stroke-linejoin="round" stroke-miterlimit="10" d="
		M31.861,74.992c0-0.623-0.005-1.12,0.001-1.617c0.03-2.558-0.043-5.123,0.123-7.672c0.168-2.578,1.254-4.772,3.406-6.339
		c0.043-0.031,0.068-0.085,0.123-0.156c-0.105-0.014-0.165-0.024-0.225-0.031c-3.187-0.364-6.334-0.914-9.318-2.141
		c-5.33-2.191-8.826-6.04-10.426-11.599c-0.673-2.337-0.98-4.726-1.091-7.144c-0.078-1.696-0.026-3.39,0.295-5.065
		c0.604-3.144,1.991-5.895,4.158-8.25c0.165-0.179,0.225-0.326,0.134-0.575c-1.416-3.89-1.001-7.709,0.475-11.48
		c0.045-0.115,0.201-0.265,0.306-0.266c1.111-0.008,2.222-0.068,3.318,0.244c3.036,0.862,5.781,2.322,8.4,4.041
		c0.356,0.234,0.661,0.296,1.081,0.188c3.094-0.798,6.241-1.257,9.435-1.355c4.134-0.128,8.204,0.357,12.21,1.382
		c0.367,0.094,0.643,0.022,0.952-0.184c1.975-1.314,4.029-2.494,6.231-3.387c1.483-0.601,2.99-1.152,4.642-1.031
		c1.027,0.075,1.026,0.067,1.352,1.023c1.203,3.524,1.493,7.076,0.284,10.66c-0.122,0.362-0.066,0.58,0.184,0.857
		c2.499,2.769,3.945,6.019,4.268,9.733c0.294,3.371,0.001,6.709-0.844,9.988c-1.224,4.75-3.867,8.457-8.146,10.934
		c-3.187,1.845-6.669,2.771-10.29,3.25c-0.56,0.074-1.122,0.131-1.742,0.203c1.945,1.746,2.613,2.646,3.192,4.319
		c0.419,1.212,0.594,2.468,0.596,3.747c0.005,2.527,0.001,5.054,0.001,7.647L31.861,74.992z"/>
</g>
</svg>
