<?xml version="1.0" encoding="utf-8"?>
<!-- Generator: Adobe Illustrator 17.0.1, SVG Export Plug-In . SVG Version: 6.00 Build 0)  -->
<!DOCTYPE svg PUBLIC "-//W3C//DTD SVG 1.1//EN" "http://www.w3.org/Graphics/SVG/1.1/DTD/svg11.dtd">
<svg version="1.1" id="Layer_1" xmlns="http://www.w3.org/2000/svg" xmlns:xlink="http://www.w3.org/1999/xlink" x="0px" y="0px"
	 width="90px" height="90px" viewBox="0 0 90 90" enable-background="new 0 0 90 90" xml:space="preserve">
<g>
	<g id="Cq9ZED.tif_6_">
		<g>
			<g>
				<path fill="#1FB6BE" d="M84.504,80.2c-5.113,0-9.957,0-15.127,0c0-1.974,0-3.88,0-5.786c0-5.978,0.028-11.955-0.02-17.933
					c-0.012-1.504-0.163-3.027-0.437-4.507c-0.826-4.452-3.713-6.773-7.895-6.465c-4.166,0.307-7.685,3.784-7.725,7.898
					c-0.079,8.166-0.026,16.333-0.027,24.499c0,0.669,0,1.337,0,2.226c-5.025,0-9.929,0-15.014,0c0-15.073,0-30.167,0-45.406
					c4.945,0,9.858,0,14.994,0c0,1.896,0,3.697,0,6.179c2.668-3.6,5.476-5.973,9.309-6.855c11.208-2.579,20.452,4.066,21.581,15.532
					c0.148,1.506,0.34,3.018,0.345,4.528C84.522,62.694,84.504,71.278,84.504,80.2z"/>
				<path fill="#1FB6BE" d="M10.473,34.674c5.056,0,9.905,0,14.914,0c0,15.187,0,30.287,0,45.534c-4.967,0-9.889,0-14.914,0
					C10.473,65.025,10.473,49.986,10.473,34.674z"/>
				<path fill="#1FB6BE" d="M18.007,28.231c-5.018,0.026-8.583-3.279-8.533-7.908c0.05-4.587,3.686-7.852,8.69-7.804
					c4.893,0.048,8.328,3.253,8.386,7.826C26.608,24.967,23.1,28.205,18.007,28.231z"/>
				<path fill="#1FA5AD" d="M62.561,34.051c11.208-2.579,20.452,4.066,21.581,15.532c0.148,1.506,0.34,3.018,0.345,4.528
					c0.033,8.583,0.016,17.167,0.016,26.09c-5.113,0-9.957,0-15.127,0c1.645-1.986,3.468-3.942,4.158-5.719
					c1.48-3.817,1.767-7.961,1.719-13.938c-0.012-1.504-0.318-11.625-0.747-13.067C72.64,41.203,66.744,33.743,62.561,34.051"/>
			</g>
		</g>
	</g>
	
		<path fill="none" stroke="#424242" stroke-width="2.585" stroke-linecap="round" stroke-linejoin="round" stroke-miterlimit="10" d="
		M31.199,42.376"/>
	<g id="Cq9ZED.tif_5_">
		<g>
			
				<path fill="none" stroke="#424242" stroke-width="2.585" stroke-linecap="round" stroke-linejoin="round" stroke-miterlimit="10" d="
				M80.522,77.474c-5.113,0-9.957,0-15.127,0c0-1.974,0-3.88,0-5.786c0-5.978,0.028-11.955-0.02-17.933
				c-0.012-1.504-0.163-3.027-0.437-4.507c-0.826-4.452-3.713-6.773-7.895-6.465c-4.166,0.307-7.685,3.784-7.725,7.898
				c-0.079,8.166-0.026,16.333-0.027,24.499c0,0.669,0,1.337,0,2.226c-5.025,0-9.929,0-15.014,0c0-15.073,0-30.167,0-45.406
				c4.945,0,9.858,0,14.994,0c0,1.896,0,3.697,0,6.179c2.668-3.6,5.476-5.973,9.309-6.855c11.208-2.579,20.452,4.066,21.581,15.532
				c0.148,1.506,0.34,3.018,0.345,4.528C80.539,59.967,80.522,68.551,80.522,77.474z"/>
			
				<path fill="none" stroke="#424242" stroke-width="2.585" stroke-linecap="round" stroke-linejoin="round" stroke-miterlimit="10" d="
				M6.491,31.948c5.056,0,9.905,0,14.914,0c0,15.187,0,30.287,0,45.534c-4.967,0-9.889,0-14.914,0
				C6.491,62.299,6.491,47.259,6.491,31.948z"/>
			
				<path fill="none" stroke="#424242" stroke-width="2.585" stroke-linecap="round" stroke-linejoin="round" stroke-miterlimit="10" d="
				M14.024,25.505c-5.018,0.026-8.583-3.279-8.533-7.908c0.05-4.587,3.686-7.852,8.69-7.804c4.893,0.048,8.328,3.253,8.386,7.826
				C22.626,22.24,19.117,25.478,14.024,25.505z"/>
		</g>
	</g>
</g>
</svg>
