<?xml version="1.0" encoding="utf-8"?>
<!-- Generator: Adobe Illustrator 17.0.1, SVG Export Plug-In . SVG Version: 6.00 Build 0)  -->
<!DOCTYPE svg PUBLIC "-//W3C//DTD SVG 1.1//EN" "http://www.w3.org/Graphics/SVG/1.1/DTD/svg11.dtd">
<svg version="1.1" id="Layer_1" xmlns="http://www.w3.org/2000/svg" xmlns:xlink="http://www.w3.org/1999/xlink" x="0px" y="0px"
	 width="90px" height="90px" viewBox="0 0 90 90" enable-background="new 0 0 90 90" xml:space="preserve">
<g>
	<rect x="14" y="17" fill="#1FB6BE" width="57" height="68"/>
	<rect x="49" y="17" fill="#1FA5AD" width="20" height="68"/>
	<polygon fill="#E2EAED" points="23,14.796 23,75 61,75 61,15.13 	"/>
	<polygon fill="#CDD4D7" points="51,14.582 51,75 61.017,75 60.547,14.773 	"/>
	<path fill="#FDD074" d="M26,20h27V9h-5.668c0,0-0.833-6.456-6.872-6.456S33.587,9,33.587,9H26V20z"/>
	<polygon fill="#E3BD6A" points="46.758,20 53,20 53,9 46.685,9 	"/>
	
		<path fill="none" stroke="#424242" stroke-width="2.585" stroke-linecap="round" stroke-linejoin="round" stroke-miterlimit="10" d="
		M25.318,19.428h27.789V8.442h-6.374c0,0-0.833-6.456-6.872-6.456s-6.872,6.456-6.872,6.456h-7.671V19.428z"/>
	
		<line fill="#FFFFFA" stroke="#424242" stroke-width="2.585" stroke-linecap="round" stroke-linejoin="round" stroke-miterlimit="10" x1="27.903" y1="29.183" x2="41.474" y2="29.183"/>
	
		<line fill="#FFFFFA" stroke="#424242" stroke-width="2.585" stroke-linecap="round" stroke-linejoin="round" stroke-miterlimit="10" x1="27.903" y1="35" x2="47.937" y2="35"/>
	
		<line fill="#FFFFFA" stroke="#424242" stroke-width="2.585" stroke-linecap="round" stroke-linejoin="round" stroke-miterlimit="10" x1="27.903" y1="41.462" x2="40.182" y2="41.462"/>
	
		<line fill="#FFFFFA" stroke="#424242" stroke-width="2.585" stroke-linecap="round" stroke-linejoin="round" stroke-miterlimit="10" x1="27.903" y1="47.925" x2="50.522" y2="47.925"/>
	
		<circle fill="none" stroke="#424242" stroke-width="2.585" stroke-linecap="round" stroke-linejoin="round" stroke-miterlimit="10" cx="40.108" cy="9.85" r="0.872"/>
	
		<polyline fill="none" stroke="#424242" stroke-width="3" stroke-linecap="round" stroke-linejoin="round" stroke-miterlimit="10" points="
		54,14.5 67.5,14.5 67.5,56 	"/>
	
		<polyline fill="none" stroke="#424242" stroke-width="3" stroke-linecap="round" stroke-linejoin="round" stroke-miterlimit="10" points="
		25,14.5 11.5,14.5 11.5,83.5 48,83.5 	"/>
	
		<polyline fill="none" stroke="#424242" stroke-width="3" stroke-linecap="round" stroke-linejoin="round" stroke-miterlimit="10" points="
		20.5,15 20.5,73.5 44,73.5 	"/>
	
		<line fill="none" stroke="#424242" stroke-width="3" stroke-linecap="round" stroke-linejoin="round" stroke-miterlimit="10" x1="58.5" y1="15" x2="58.5" y2="50"/>
	<rect x="56.678" y="50.462" fill="#E2EAED" width="5.27" height="4.481"/>
	
		<polyline fill="none" stroke="#424242" stroke-width="2.585" stroke-linecap="round" stroke-linejoin="round" stroke-miterlimit="10" points="
		56.678,54.339 56.678,50.462 63.141,50.462 63.141,53.693 	"/>
	<circle fill="#E2EAED" cx="61.948" cy="71.479" r="16.535"/>
	<path fill="#CDD4D7" d="M73.109,60.935c9.682,14.34-3.568,25.463-12.209,25.463c-8.913,0-12.602-5.603-13.52-7.805
		C59.957,89.207,75.055,77.048,73.109,60.935z"/>
	
		<circle fill="none" stroke="#424242" stroke-width="2.585" stroke-linecap="round" stroke-linejoin="round" stroke-miterlimit="10" cx="60.608" cy="71.186" r="16.535"/>
	
		<polyline fill="none" stroke="#424242" stroke-width="2.585" stroke-linecap="round" stroke-linejoin="round" stroke-miterlimit="10" points="
		49.892,77.945 60.556,71.142 60.556,58.217 	"/>
</g>
</svg>
