<?xml version="1.0" encoding="utf-8"?>
<!-- Generator: Adobe Illustrator 17.0.1, SVG Export Plug-In . SVG Version: 6.00 Build 0)  -->
<!DOCTYPE svg PUBLIC "-//W3C//DTD SVG 1.1//EN" "http://www.w3.org/Graphics/SVG/1.1/DTD/svg11.dtd">
<svg version="1.1" id="Layer_1" xmlns="http://www.w3.org/2000/svg" xmlns:xlink="http://www.w3.org/1999/xlink" x="0px" y="0px"
	 width="90px" height="90px" viewBox="0 0 90 90" enable-background="new 0 0 90 90" xml:space="preserve">
<g>
	<path fill="#FDD074" d="M29.628,24.168c6.076,0,9.587,5.617,9.587,10.231s-1.018,14.049-9.587,14.049S19.655,41.12,19.655,34.8
		S24.355,24.168,29.628,24.168z"/>
	<path fill="#E3BD6A" d="M34.526,25.816c0.111-2.844,3.049,4.897,3.049,7.443c0,4.614-1.018,14.049-9.587,14.049
		c-2.644,0-4.606-0.698-6.055-1.849C18.686,42.881,33.684,47.308,34.526,25.816z"/>
	<path fill="#FDD074" d="M65.576,23.027c6.076,0,9.587,5.617,9.587,10.231s-1.018,14.049-9.587,14.049
		c-8.569,0-9.973-7.329-9.973-13.648S60.303,23.027,65.576,23.027z"/>
	<path fill="#E3BD6A" d="M69.765,25.032c0.111-2.844,3.049,4.897,3.049,7.443c0,4.614-1.018,14.049-9.587,14.049
		c-2.644,0-4.606-0.698-6.055-1.849C53.925,42.098,68.923,46.525,69.765,25.032z"/>
	<path fill="#FDD074" d="M47.275,12.03c8.365,0,13.199,7.734,13.199,14.086s-1.401,19.342-13.199,19.342
		s-13.731-10.089-13.731-18.79S40.015,12.03,47.275,12.03z"/>
	<path fill="#E3BD6A" d="M53.848,14.583c0.149-3.812,4.087,6.564,4.087,9.977c0,6.185-1.364,18.832-12.851,18.832
		c-3.545,0-6.175-0.935-8.117-2.478C32.616,37.458,52.72,43.392,53.848,14.583z"/>
	<path fill="#F97159" d="M84.611,68.691c0,0-6.821-15.522-13.441-17.829l-6.161,4.59c4.512,6.346,8.216,14.167,9.571,17.368
		C81.212,71.221,84.611,68.691,84.611,68.691z"/>
	<path fill="#F97159" d="M20.83,50.436c0,0-10.044,6.549-13.441,18.464c0,0,3.77,2.698,11.062,4.209
		c2.238-7.477,5.96-13.261,9.443-17.41L20.83,50.436z"/>
	<path fill="#DB6252" d="M52.955,71.365c2.923,1.6,6.442,2.736,10.541,2.736c13.893,0,21.115-5.41,21.115-5.41
		s-3.43-8.023-7.786-13.514C75.038,52.925,81.006,67.423,52.955,71.365z"/>
	<path fill="#F97159" d="M36.513,47.302c0,0-13.792,8.857-18.505,27.168c0,0,9.943,5.423,29.07,5.423s29.07-5.7,29.07-5.7
		s-9.391-23.715-18.505-26.892c0,0-3.175,4.739-10.565,4.739S36.513,47.302,36.513,47.302z"/>
	<path fill="#DB6252" d="M28.329,78.071c4.616,1.002,10.664,1.822,18.102,1.822c19.127,0,29.07-5.7,29.07-5.7
		s-4.182-10.562-9.674-18.533C63.09,51.688,71.626,71.724,28.329,78.071z"/>
	<g>
		
			<path fill="none" stroke="#424242" stroke-width="2.585" stroke-linecap="round" stroke-linejoin="round" stroke-miterlimit="10" d="
			M31.591,23.987c-1.365-0.887-3.005-1.431-4.893-1.431c-5.274,0-9.973,4.313-9.973,10.633s1.404,13.648,9.973,13.648
			c5.24,0,7.65-3.531,8.736-7.328c-3.167-3.739-3.878-9.504-3.878-14.764C31.555,24.487,31.579,24.24,31.591,23.987z"/>
		
			<path fill="none" stroke="#424242" stroke-width="2.585" stroke-linecap="round" stroke-linejoin="round" stroke-miterlimit="10" d="
			M62.645,21.416c-1.512,0-2.972,0.365-4.292,1.02c0.078,0.592,0.132,1.181,0.132,1.757c0,4.259-0.635,11.496-4.605,15.807
			c1.284,3.265,3.835,5.697,8.766,5.697c8.569,0,9.587-9.435,9.587-14.049C72.232,27.033,68.721,21.416,62.645,21.416z"/>
		
			<path fill="none" stroke="#424242" stroke-width="2.585" stroke-linecap="round" stroke-linejoin="round" stroke-miterlimit="10" d="
			M58.353,22.436c-0.787-5.936-5.46-12.329-13.067-12.329c-7.045,0-13.328,5.6-13.695,13.88c-0.011,0.253-0.035,0.5-0.035,0.758
			c0,5.261,0.711,11.025,3.878,14.764c2.071,2.445,5.188,4.025,9.852,4.025c3.888,0,6.642-1.416,8.593-3.535
			c3.97-4.311,4.605-11.548,4.605-15.807C58.484,23.617,58.431,23.028,58.353,22.436z"/>
	</g>
	
		<path fill="none" stroke="#424242" stroke-width="2.585" stroke-linecap="round" stroke-linejoin="round" stroke-miterlimit="10" d="
		M18.83,48.436c0,0-10.044,6.549-13.441,18.464c0,0,3.77,2.698,11.062,4.209c2.238-7.477,5.96-13.261,9.443-17.41L18.83,48.436z"/>
	
		<path fill="none" stroke="#424242" stroke-width="2.585" stroke-linecap="round" stroke-linejoin="round" stroke-miterlimit="10" d="
		M83.567,67.125c0,0-6.821-15.956-13.441-18.263l-6.161,4.59c4.512,6.346,8.209,14.621,9.564,17.821
		C80.161,69.675,83.567,67.125,83.567,67.125z"/>
	
		<path fill="none" stroke="#424242" stroke-width="2.585" stroke-linecap="round" stroke-linejoin="round" stroke-miterlimit="10" d="
		M63.965,53.452c-2.62-3.686-5.514-6.717-8.38-7.716c0,0-3.175,4.739-10.565,4.739s-10.565-4.739-10.565-4.739
		s-4.081,2.627-8.561,7.963c-3.483,4.148-7.205,9.933-9.443,17.41c-0.176,0.588-0.344,1.186-0.501,1.795
		c0,0,9.943,5.423,29.07,5.423s29.07-5.7,29.07-5.7s-0.2-0.504-0.561-1.354C72.174,68.073,68.477,59.798,63.965,53.452z"/>
</g>
</svg>
