<?xml version="1.0" encoding="utf-8"?>
<!-- Generator: Adobe Illustrator 17.0.1, SVG Export Plug-In . SVG Version: 6.00 Build 0)  -->
<!DOCTYPE svg PUBLIC "-//W3C//DTD SVG 1.1//EN" "http://www.w3.org/Graphics/SVG/1.1/DTD/svg11.dtd">
<svg version="1.1" id="Layer_1" xmlns="http://www.w3.org/2000/svg" xmlns:xlink="http://www.w3.org/1999/xlink" x="0px" y="0px"
	 width="90px" height="90px" viewBox="0 0 90 90" enable-background="new 0 0 90 90" xml:space="preserve">
<g>
	<rect x="15" y="12" fill="#1FB6BE" width="63" height="73"/>
	<rect x="14.03" y="12.042" fill="#1FA5AD" width="13.141" height="73.014"/>
	<polygon fill="#F97159" points="44,35 52,35 52,43 59,43 59,53 54,53 54,59 44,59 44,53 37,53 37,44 44,44 	"/>
	<polygon fill="#F97159" points="58,6 58,32.988 64.11,28.87 69,32.988 69,6 	"/>
	<g>
		
			<polygon fill="none" stroke="#424242" stroke-width="2.585" stroke-linecap="round" stroke-linejoin="round" stroke-miterlimit="10" points="
			68.899,9.802 68.899,31.403 64.016,27.285 57.912,31.403 57.912,9.802 12.028,9.802 12.028,82.829 75.361,82.829 75.361,9.802 		
			"/>
		
			<polygon fill="none" stroke="#424242" stroke-width="2.585" stroke-linecap="round" stroke-linejoin="round" stroke-miterlimit="10" points="
			64.016,27.285 68.899,31.403 68.899,9.802 68.899,4.631 57.912,4.631 57.912,9.802 57.912,31.403 		"/>
	</g>
	
		<line fill="#FFFFFA" stroke="#424242" stroke-width="2.585" stroke-linecap="round" stroke-linejoin="round" stroke-miterlimit="10" x1="24.307" y1="9.802" x2="24.307" y2="21.434"/>
	
		<line fill="#FFFFFA" stroke="#424242" stroke-width="2.585" stroke-linecap="round" stroke-linejoin="round" stroke-miterlimit="10" x1="24.307" y1="28.543" x2="24.307" y2="81.536"/>
	
		<polygon fill="none" stroke="#424242" stroke-width="2.585" stroke-linecap="round" stroke-linejoin="round" stroke-miterlimit="10" points="
		43.695,34.359 52.096,34.359 52.096,41.468 59.205,41.468 59.205,51.808 53.389,51.808 53.389,58.271 43.695,58.271 43.695,51.808 
		36.586,51.808 36.586,42.761 43.695,42.761 	"/>
	
		<line fill="#FFFFFA" stroke="#424242" stroke-width="2.585" stroke-linecap="round" stroke-linejoin="round" stroke-miterlimit="10" x1="40.463" y1="69.257" x2="56.62" y2="69.257"/>
	
		<line fill="#FFFFFA" stroke="#424242" stroke-width="2.585" stroke-linecap="round" stroke-linejoin="round" stroke-miterlimit="10" x1="45.633" y1="74.427" x2="51.45" y2="74.427"/>
	
		<line fill="#FFFFFA" stroke="#424242" stroke-width="2.585" stroke-linecap="round" stroke-linejoin="round" stroke-miterlimit="10" x1="18.491" y1="13.033" x2="18.491" y2="18.203"/>
	
		<line fill="#FFFFFA" stroke="#424242" stroke-width="2.585" stroke-linecap="round" stroke-linejoin="round" stroke-miterlimit="10" x1="18.491" y1="56.978" x2="18.491" y2="66.672"/>
	
		<line fill="#FFFFFA" stroke="#424242" stroke-width="2.585" stroke-linecap="round" stroke-linejoin="round" stroke-miterlimit="10" x1="18.491" y1="71.842" x2="18.491" y2="75.074"/>
</g>
</svg>
