<?xml version="1.0" encoding="utf-8"?>
<!-- Generator: Adobe Illustrator 17.0.1, SVG Export Plug-In . SVG Version: 6.00 Build 0)  -->
<!DOCTYPE svg PUBLIC "-//W3C//DTD SVG 1.1//EN" "http://www.w3.org/Graphics/SVG/1.1/DTD/svg11.dtd">
<svg version="1.1" id="Layer_1" xmlns="http://www.w3.org/2000/svg" xmlns:xlink="http://www.w3.org/1999/xlink" x="0px" y="0px"
	 width="90px" height="90px" viewBox="0 0 90 90" enable-background="new 0 0 90 90" xml:space="preserve">
<g>
	<g>
		
			<path fill="none" stroke="#424242" stroke-width="2.585" stroke-linecap="round" stroke-linejoin="round" stroke-miterlimit="10" d="
			M62.126,39.837c6.618,0,12.604,2.165,16.917,5.658c0.839-2.518,1.293-5.162,1.293-7.892c0-16.864-17.071-30.536-38.129-30.536
			c-21.058,0-38.129,13.671-38.129,30.536c0,7.75,3.612,14.821,9.553,20.206l-0.02-0.01c0,0,2.1,4.524,0.969,8.079
			c-1.131,3.554-7.546,6.14-7.974,7.917c-0.427,1.777,5.066,4.201,14.113,0s10.312-6.989,10.312-6.989l-0.006-0.003
			c3.259,0.799,6.708,1.242,10.273,1.31c-1.889-2.732-2.968-5.873-2.968-9.217C38.329,48.369,48.983,39.837,62.126,39.837z"/>
		
			<path fill="none" stroke="#424242" stroke-width="2.585" stroke-linecap="round" stroke-linejoin="round" stroke-miterlimit="10" d="
			M79.368,76.54c-0.706-2.218,0.605-5.042,0.605-5.042l-0.013,0.006c3.708-3.36,5.962-7.773,5.962-12.61
			c0-5.225-2.627-9.957-6.879-13.399c-4.313-3.493-10.299-5.658-16.917-5.658c-13.143,0-23.797,8.532-23.797,19.057
			c0,3.344,1.079,6.485,2.968,9.217c4.057,5.867,11.862,9.841,20.829,9.841c2.429,0,4.772-0.293,6.979-0.835l-0.004,0.002
			c0,0,0.789,1.74,6.436,4.362s9.075,1.109,8.808,0C84.078,80.372,80.074,78.758,79.368,76.54z"/>
	</g>
	
		<circle fill="none" stroke="#424242" stroke-width="2.585" stroke-linecap="round" stroke-linejoin="round" stroke-miterlimit="10" cx="52.466" cy="59.333" r="2.989"/>
	
		<circle fill="none" stroke="#424242" stroke-width="2.585" stroke-linecap="round" stroke-linejoin="round" stroke-miterlimit="10" cx="62.806" cy="59.333" r="2.989"/>
	
		<circle fill="none" stroke="#424242" stroke-width="2.585" stroke-linecap="round" stroke-linejoin="round" stroke-miterlimit="10" cx="73.146" cy="59.333" r="2.989"/>
</g>
</svg>
