<?xml version="1.0" encoding="utf-8"?>
<!-- Generator: Adobe Illustrator 17.0.1, SVG Export Plug-In . SVG Version: 6.00 Build 0)  -->
<!DOCTYPE svg PUBLIC "-//W3C//DTD SVG 1.1//EN" "http://www.w3.org/Graphics/SVG/1.1/DTD/svg11.dtd">
<svg version="1.1" id="Layer_1" xmlns="http://www.w3.org/2000/svg" xmlns:xlink="http://www.w3.org/1999/xlink" x="0px" y="0px"
	 width="90px" height="90px" viewBox="0 0 90 90" enable-background="new 0 0 90 90" xml:space="preserve">
<g>
	<path fill="#B2B2B2" d="M83.979,83.979L83.979,83.979c-1.427,1.427-3.74,1.427-5.166,0L6.021,11.187
		c-1.427-1.427-1.427-3.74,0-5.166l0,0c1.427-1.427,3.74-1.427,5.166,0l72.792,72.792C85.406,80.24,85.406,82.553,83.979,83.979z"/>
	<path fill="#B2B2B2" d="M83.979,6.021L83.979,6.021c1.427,1.427,1.427,3.74,0,5.166L11.187,83.979c-1.427,1.427-3.74,1.427-5.166,0
		l0,0c-1.427-1.427-1.427-3.74,0-5.166L78.813,6.021C80.24,4.594,82.553,4.594,83.979,6.021z"/>
</g>
</svg>
