<?xml version="1.0" encoding="utf-8"?>
<!-- Generator: Adobe Illustrator 17.0.1, SVG Export Plug-In . SVG Version: 6.00 Build 0)  -->
<!DOCTYPE svg PUBLIC "-//W3C//DTD SVG 1.1//EN" "http://www.w3.org/Graphics/SVG/1.1/DTD/svg11.dtd">
<svg version="1.1" id="Layer_1" xmlns="http://www.w3.org/2000/svg" xmlns:xlink="http://www.w3.org/1999/xlink" x="0px" y="0px"
	 width="90px" height="90px" viewBox="0 0 90 90" enable-background="new 0 0 90 90" xml:space="preserve">
<g>
	<path fill="#FDD074" d="M81.739,41.874c-1.941-0.295-3.618,0.295-8.344-1.625c-4.726-1.92-4.578-6.129-4.578-8.861
		s3.692-6.794,5.021-8.351c1.329-1.558-0.074-2.725-1.477-4.128c-1.403-1.403-2.511-2.437-3.692-1.551
		c-1.181,0.886-3.028,2.584-5.243,4.135c-2.215,1.551-4.578,2.511-9.183,0c-4.605-2.511-4.551-9.673-4.612-11.579
		c-0.061-1.906-0.309-2.082-3.998-2.082c-2.73,0-3.473,0.443-3.473,1.721s-0.886,6.771-2.954,10.093
		c-2.068,3.323-5.169,2.954-7.827,2.954s-5.907-3.323-7.647-4.8c-1.739-1.477-2.765-0.96-4.629,1.108
		c-1.864,2.068-2.05,3.249-1.351,3.914c0.699,0.665,3.658,4.357,4.825,7.31s-0.429,5.834-2.59,8.64s-7.586,2.363-9.801,2.806
		c-2.215,0.443-2.121,2.141-2.121,4.431s0.644,3.175,1.678,3.471c1.034,0.295,4.209,0.369,8.608,1.403s4.61,6.72,4.684,9.83
		c0.074,3.111-3.914,6.12-5.283,7.602c-1.369,1.482,0.483,3.096,2.235,4.647c1.752,1.551,2.309,1.551,3.745,0.443
		c1.436-1.108,6.096-4.578,8.533-5.09c2.437-0.511,6.867,1.693,8.163,4.647c1.296,2.954,1.362,7.237,1.51,8.492
		s1.772,1.994,4.292,1.994s3.093-0.369,3.401-1.846c0.309-1.477,0.282-4.504,1.782-8.197c1.5-3.692,5.146-4.8,8.469-4.8
		s6.35,3.471,8.418,4.8s2.732,0.738,4.726-1.322s1.477-3.035,0.886-3.768c-0.591-0.733-1.034-0.965-3.84-5.101
		s0.074-9.6,2.141-11.593c2.068-1.994,7.68-1.994,9.526-2.215s1.941-2.584,1.941-4.061C83.68,43.868,83.68,42.169,81.739,41.874z
		 M45.916,63.53c-9.875,0-17.88-8.005-17.88-17.88s8.005-17.88,17.88-17.88c9.875,0,17.88,8.005,17.88,17.88
		S55.791,63.53,45.916,63.53z"/>
	<path fill="#E3BD6A" d="M63.344,45.574c0.335,8.981-8.005,17.88-17.88,17.88c-5.637,0-10.664-2.608-13.941-6.684
		c-0.171,0.185-14.514,11.841-14.591,12.03c-0.539,1.323,1.071,2.728,2.604,4.085c1.752,1.551,2.309,1.551,3.745,0.443
		c1.436-1.108,6.096-4.578,8.533-5.09c2.437-0.511,6.867,1.693,8.163,4.647c1.296,2.954,1.362,7.237,1.51,8.492
		c0.148,1.255,1.772,1.994,4.292,1.994c2.519,0,3.093-0.369,3.401-1.846c0.309-1.477,0.282-4.504,1.782-8.197
		c1.5-3.692,5.146-4.8,8.469-4.8s6.35,3.471,8.418,4.8s2.732,0.738,4.726-1.322c1.994-2.06,1.477-3.035,0.886-3.768
		s-1.034-0.965-3.84-5.101s0.074-9.6,2.141-11.593c2.068-1.994,7.68-1.994,9.526-2.215s1.941-2.584,1.941-4.061s0-3.175-1.941-3.471
		c-1.941-0.295-3.618,0.295-8.344-1.625c-4.726-1.92-4.578-6.129-4.578-8.861c0-0.657-2.871,1.05-7.253,4.043
		C60.967,35.455,63.009,36.593,63.344,45.574z"/>
	
		<path fill="none" stroke="#424242" stroke-width="2.585" stroke-linecap="round" stroke-linejoin="round" stroke-miterlimit="10" d="
		M79.995,40.594c-1.941-0.295-3.618,0.295-8.344-1.625c-4.726-1.92-4.578-6.129-4.578-8.861s3.692-6.794,5.021-8.351
		c1.329-1.558-0.074-2.725-1.477-4.128s-2.511-2.437-3.692-1.551c-1.181,0.886-3.028,2.584-5.243,4.135s-4.578,2.511-9.183,0
		c-4.605-2.511-4.551-9.673-4.612-11.579c-0.061-1.906-0.309-2.082-3.998-2.082c-2.73,0-3.473,0.443-3.473,1.721
		s-0.886,6.771-2.954,10.093s-5.169,2.954-7.827,2.954s-5.907-3.323-7.647-4.8c-1.739-1.477-2.765-0.96-4.629,1.108
		c-1.864,2.068-2.05,3.249-1.351,3.914c0.699,0.665,3.658,4.357,4.825,7.31s-0.429,5.834-2.59,8.64s-7.586,2.363-9.801,2.806
		C6.226,40.742,6.32,42.44,6.32,44.729s0.644,3.175,1.678,3.471c1.034,0.295,4.209,0.369,8.608,1.403s4.61,6.72,4.684,9.83
		c0.074,3.111-3.914,6.12-5.283,7.602c-1.369,1.482,0.483,3.096,2.235,4.647c1.752,1.551,2.309,1.551,3.745,0.443
		c1.436-1.108,6.096-4.578,8.533-5.09c2.437-0.511,6.867,1.693,8.163,4.647c1.296,2.954,1.362,7.237,1.51,8.492
		s1.772,1.994,4.292,1.994c2.519,0,3.093-0.369,3.401-1.846c0.309-1.477,0.282-4.504,1.782-8.197c1.5-3.692,5.146-4.8,8.469-4.8
		s6.35,3.471,8.418,4.8c2.068,1.329,2.732,0.738,4.726-1.322c1.994-2.06,1.477-3.035,0.886-3.768
		c-0.591-0.733-1.034-0.965-3.84-5.101s0.074-9.6,2.141-11.593c2.068-1.994,7.68-1.994,9.526-2.215s1.941-2.584,1.941-4.061
		C81.935,42.588,81.935,40.89,79.995,40.594z M44.171,62.25c-9.875,0-17.88-8.005-17.88-17.88s8.005-17.88,17.88-17.88
		c9.875,0,17.88,8.005,17.88,17.88S54.046,62.25,44.171,62.25z"/>
</g>
</svg>
