<?xml version="1.0" encoding="utf-8"?>
<!-- Generator: Adobe Illustrator 17.0.1, SVG Export Plug-In . SVG Version: 6.00 Build 0)  -->
<!DOCTYPE svg PUBLIC "-//W3C//DTD SVG 1.1//EN" "http://www.w3.org/Graphics/SVG/1.1/DTD/svg11.dtd">
<svg version="1.1" id="Layer_1" xmlns="http://www.w3.org/2000/svg" xmlns:xlink="http://www.w3.org/1999/xlink" x="0px" y="0px"
	 width="90px" height="90px" viewBox="0 0 90 90" enable-background="new 0 0 90 90" xml:space="preserve">
<g>
	<polygon fill="#F97159" points="34,11 57,11 57,34 81,34 81,57 59,57 59,80 34,80 34,57 11,57 11,34 34,34 	"/>
	<polygon fill="#DB6252" points="58.058,34 81,34 81,57 59,57 59,80 34,80 34,56.167 	"/>
	
		<polygon fill="none" stroke="#424242" stroke-width="3" stroke-linecap="round" stroke-linejoin="round" stroke-miterlimit="10" points="
		31.5,7.5 54.5,7.5 54.5,30.5 78.5,30.5 78.5,53.5 56.5,53.5 56.5,76.5 31.5,76.5 31.5,53.5 8.5,53.5 8.5,30.5 31.5,30.5 	"/>
	<polyline fill="#E2EAED" points="57,50 57,46 64,46 64,50 	"/>
	<circle fill="#E2EAED" cx="61.181" cy="66.042" r="16.535"/>
	<path fill="#CDD4D7" d="M72.342,55.498c9.682,14.34-3.568,25.463-12.209,25.463c-8.913,0-12.602-5.603-13.52-7.805
		C59.19,83.77,74.288,71.611,72.342,55.498z"/>
	
		<circle fill="none" stroke="#424242" stroke-width="2.585" stroke-linecap="round" stroke-linejoin="round" stroke-miterlimit="10" cx="59.889" cy="64.75" r="16.535"/>
	
		<polyline fill="none" stroke="#424242" stroke-width="3" stroke-linecap="round" stroke-linejoin="round" stroke-miterlimit="10" points="
		55.5,49 55.5,45.5 61.5,45.5 61.5,48 	"/>
	
		<polyline fill="none" stroke="#424242" stroke-width="3" stroke-linecap="round" stroke-linejoin="round" stroke-miterlimit="10" points="
		48.837,72.118 59.5,64.706 59.5,53 	"/>
</g>
</svg>
