<?xml version="1.0" encoding="utf-8"?>
<!-- Generator: Adobe Illustrator 17.0.1, SVG Export Plug-In . SVG Version: 6.00 Build 0)  -->
<!DOCTYPE svg PUBLIC "-//W3C//DTD SVG 1.1//EN" "http://www.w3.org/Graphics/SVG/1.1/DTD/svg11.dtd">
<svg version="1.1" id="Layer_1" xmlns="http://www.w3.org/2000/svg" xmlns:xlink="http://www.w3.org/1999/xlink" x="0px" y="0px"
	 width="90px" height="90px" viewBox="0 0 90 90" enable-background="new 0 0 90 90" xml:space="preserve">
<g>
	<circle fill="#E2EAED" cx="45.71" cy="46.635" r="39.524"/>
	<path fill="#CDD4D7" d="M77.346,25.036c23.608,34.963-8.701,62.084-29.768,62.084c-21.733,0-32.02-13.662-34.258-19.029
		C48.731,86.16,81.475,63.433,77.346,25.036z"/>
	
		<circle fill="none" stroke="#424242" stroke-width="2.585" stroke-linecap="round" stroke-linejoin="round" stroke-miterlimit="10" cx="43.907" cy="42.404" r="39.524"/>
	<rect x="39" y="21" fill="#F97159" width="14" height="31"/>
	<polygon fill="#DB6252" points="53,30.717 53,52 39,52 39,43.05 	"/>
	
		<rect x="37.5" y="17.5" fill="none" stroke="#424242" stroke-width="3" stroke-linecap="round" stroke-linejoin="round" stroke-miterlimit="10" width="14" height="31"/>
	<rect x="39" y="59" fill="#F97159" width="14" height="11"/>
	<polygon fill="#DB6252" points="53,59.716 53,69 39,69 39,64.383 	"/>
	
		<rect x="37.5" y="56.5" fill="none" stroke="#424242" stroke-width="3" stroke-linecap="round" stroke-linejoin="round" stroke-miterlimit="10" width="14" height="11"/>
</g>
</svg>
