<?xml version="1.0" encoding="utf-8"?>
<!-- Generator: Adobe Illustrator 17.0.1, SVG Export Plug-In . SVG Version: 6.00 Build 0)  -->
<!DOCTYPE svg PUBLIC "-//W3C//DTD SVG 1.1//EN" "http://www.w3.org/Graphics/SVG/1.1/DTD/svg11.dtd">
<svg version="1.1" id="Layer_1" xmlns="http://www.w3.org/2000/svg" xmlns:xlink="http://www.w3.org/1999/xlink" x="0px" y="0px"
	 width="90px" height="90px" viewBox="0 0 90 90" enable-background="new 0 0 90 90" xml:space="preserve">
<g>
	<g>
		
			<path fill="none" stroke="#424242" stroke-width="2.585" stroke-linecap="round" stroke-linejoin="round" stroke-miterlimit="10" d="
			M32.113,24.77c-1.365-0.887-3.005-1.431-4.893-1.431c-5.274,0-9.973,4.313-9.973,10.633S18.65,47.62,27.219,47.62
			c5.24,0,7.65-3.531,8.736-7.328c-3.167-3.739-3.878-9.504-3.878-14.764C32.077,25.27,32.101,25.023,32.113,24.77z"/>
		
			<path fill="none" stroke="#424242" stroke-width="2.585" stroke-linecap="round" stroke-linejoin="round" stroke-miterlimit="10" d="
			M63.167,22.199c-1.512,0-2.972,0.365-4.292,1.02c0.078,0.592,0.132,1.181,0.132,1.757c0,4.259-0.635,11.496-4.605,15.807
			c1.284,3.265,3.835,5.697,8.766,5.697c8.569,0,9.587-9.435,9.587-14.049C72.754,27.816,69.243,22.199,63.167,22.199z"/>
		
			<path fill="none" stroke="#424242" stroke-width="2.585" stroke-linecap="round" stroke-linejoin="round" stroke-miterlimit="10" d="
			M58.875,23.219c-0.787-5.936-5.46-12.329-13.067-12.329c-7.045,0-13.328,5.6-13.695,13.88c-0.011,0.253-0.035,0.5-0.035,0.758
			c0,5.261,0.711,11.025,3.878,14.764c2.071,2.445,5.188,4.025,9.852,4.025c3.888,0,6.642-1.416,8.593-3.535
			c3.97-4.311,4.605-11.548,4.605-15.807C59.006,24.4,58.953,23.811,58.875,23.219z"/>
	</g>
	<g>
		
			<path fill="none" stroke="#424242" stroke-width="2.585" stroke-linecap="round" stroke-linejoin="round" stroke-miterlimit="10" d="
			M19.352,49.219c0,0-10.044,6.549-13.441,18.464c0,0,3.77,2.698,11.062,4.209c2.238-7.477,5.96-13.261,9.443-17.41L19.352,49.219z"
			/>
		
			<path fill="none" stroke="#424242" stroke-width="2.585" stroke-linecap="round" stroke-linejoin="round" stroke-miterlimit="10" d="
			M84.089,67.908c0,0-6.821-15.956-13.441-18.263l-6.161,4.59c4.512,6.346,8.209,14.621,9.564,17.821
			C80.683,70.458,84.089,67.908,84.089,67.908z"/>
		
			<path fill="none" stroke="#424242" stroke-width="2.585" stroke-linecap="round" stroke-linejoin="round" stroke-miterlimit="10" d="
			M64.487,54.235c-2.62-3.686-5.514-6.717-8.38-7.716c0,0-3.175,4.739-10.565,4.739s-10.565-4.739-10.565-4.739
			s-4.081,2.627-8.561,7.963c-3.483,4.148-7.205,9.933-9.443,17.41c-0.176,0.588-0.344,1.186-0.501,1.795
			c0,0,9.943,5.423,29.07,5.423s29.07-5.7,29.07-5.7s-0.2-0.504-0.561-1.354C72.696,68.856,68.999,60.581,64.487,54.235z"/>
	</g>
</g>
</svg>
