<?xml version="1.0" encoding="utf-8"?>
<!-- Generator: Adobe Illustrator 17.0.1, SVG Export Plug-In . SVG Version: 6.00 Build 0)  -->
<!DOCTYPE svg PUBLIC "-//W3C//DTD SVG 1.1//EN" "http://www.w3.org/Graphics/SVG/1.1/DTD/svg11.dtd">
<svg version="1.1" id="Layer_1" xmlns="http://www.w3.org/2000/svg" xmlns:xlink="http://www.w3.org/1999/xlink" x="0px" y="0px"
	 width="90px" height="90px" viewBox="0 0 90 90" enable-background="new 0 0 90 90" xml:space="preserve">
<g>
	
		<path fill="none" stroke="#424242" stroke-width="2.585" stroke-linecap="round" stroke-linejoin="round" stroke-miterlimit="10" d="
		M44.573,31.697c4.787,0,9.318-6.497,16.157-6.497s15.9,11.669,15.9,24.513S64.149,82.561,57.139,82.561s-7.865-2.65-11.797-2.65
		s-5.727,2.65-10.857,2.65S13.371,65.464,13.371,47.939S24.911,25.2,29.784,25.2S39.956,31.697,44.573,31.697z"/>
	
		<path fill="none" stroke="#424242" stroke-width="2.585" stroke-linecap="round" stroke-linejoin="round" stroke-miterlimit="10" d="
		M35.004,82.547c0,0,5.978,0.003,13.928-6.654"/>
	
		<path fill="none" stroke="#424242" stroke-width="2.585" stroke-linecap="round" stroke-linejoin="round" stroke-miterlimit="10" d="
		M45.223,31.68c0,0,0-15.541,10.292-15.541"/>
	
		<path fill="none" stroke="#424242" stroke-width="2.585" stroke-linecap="round" stroke-linejoin="round" stroke-miterlimit="10" d="
		M44.316,30.01c0,0,0.847-10.978-4.962-14.395c-6.664-3.921-8.472-7.7-10.018-8.153c-1.546-0.453-4.938,6.056-1.906,12.426
		S44.822,30.945,44.316,30.01z"/>
</g>
</svg>
