<?xml version="1.0" encoding="utf-8"?>
<!-- Generator: Adobe Illustrator 17.0.1, SVG Export Plug-In . SVG Version: 6.00 Build 0)  -->
<!DOCTYPE svg PUBLIC "-//W3C//DTD SVG 1.1//EN" "http://www.w3.org/Graphics/SVG/1.1/DTD/svg11.dtd">
<svg version="1.1" id="Layer_1" xmlns="http://www.w3.org/2000/svg" xmlns:xlink="http://www.w3.org/1999/xlink" x="0px" y="0px"
	 width="90px" height="90px" viewBox="0 0 90 90" enable-background="new 0 0 90 90" xml:space="preserve">
<g>
	<rect x="18" y="18" fill="#1FB6BE" width="57" height="68"/>
	<rect x="53" y="18" fill="#1FA5AD" width="20" height="68"/>
	<rect x="27" y="18" fill="#E2EAED" width="38" height="58"/>
	<rect x="55" y="18" fill="#CDD4D7" width="10" height="58"/>
	<path fill="#FDD074" d="M30,23h27V12h-6.05c0,0-0.833-6.456-6.872-6.456S37.205,12,37.205,12H30V23z"/>
	<polygon fill="#E3BD6A" points="50.377,23 57,23 57,12 50.304,12 	"/>
	
		<path fill="none" stroke="#424242" stroke-width="2.585" stroke-linecap="round" stroke-linejoin="round" stroke-miterlimit="10" d="
		M56.725,14.397v-3.878h-6.374c0,0-0.833-6.456-6.872-6.456s-6.872,6.456-6.872,6.456h-7.671v3.878H15.365V82.9h56.224V14.397
		H56.725z"/>
	
		<line fill="none" stroke="#424242" stroke-width="2.585" stroke-linecap="round" stroke-linejoin="round" stroke-miterlimit="10" x1="31.521" y1="29.261" x2="45.093" y2="29.261"/>
	
		<line fill="none" stroke="#424242" stroke-width="2.585" stroke-linecap="round" stroke-linejoin="round" stroke-miterlimit="10" x1="31.521" y1="35.077" x2="51.555" y2="35.077"/>
	
		<line fill="none" stroke="#424242" stroke-width="2.585" stroke-linecap="round" stroke-linejoin="round" stroke-miterlimit="10" x1="31.521" y1="41.54" x2="43.8" y2="41.54"/>
	
		<line fill="none" stroke="#424242" stroke-width="2.585" stroke-linecap="round" stroke-linejoin="round" stroke-miterlimit="10" x1="31.521" y1="48.002" x2="54.14" y2="48.002"/>
	
		<line fill="none" stroke="#424242" stroke-width="2.585" stroke-linecap="round" stroke-linejoin="round" stroke-miterlimit="10" x1="48.97" y1="64.159" x2="56.725" y2="64.159"/>
	
		<circle fill="none" stroke="#424242" stroke-width="2.585" stroke-linecap="round" stroke-linejoin="round" stroke-miterlimit="10" cx="43.726" cy="11.928" r="0.872"/>
	
		<polyline fill="none" stroke="#424242" stroke-width="3" stroke-linecap="round" stroke-linejoin="round" stroke-miterlimit="10" points="
		24.5,15 24.5,73.5 62.5,73.5 62.5,15 	"/>
	
		<polyline fill="none" stroke="#424242" stroke-width="3" stroke-linecap="round" stroke-linejoin="round" stroke-miterlimit="10" points="
		29.5,13 29.5,22.5 57.5,22.5 57.5,13 	"/>
</g>
</svg>
