<?xml version="1.0" encoding="utf-8"?>
<!-- Generator: Adobe Illustrator 17.0.1, SVG Export Plug-In . SVG Version: 6.00 Build 0)  -->
<!DOCTYPE svg PUBLIC "-//W3C//DTD SVG 1.1//EN" "http://www.w3.org/Graphics/SVG/1.1/DTD/svg11.dtd">
<svg version="1.1" id="Layer_1" xmlns="http://www.w3.org/2000/svg" xmlns:xlink="http://www.w3.org/1999/xlink" x="0px" y="0px"
	 width="90px" height="90px" viewBox="0 0 90 90" enable-background="new 0 0 90 90" xml:space="preserve">
<g>
	<path fill="#F97159" d="M45.085,22.061c0,0,16.127-22.907,31.941-7.092c23.507,23.507-31.941,66.112-31.941,66.112
		s-53.79-43.639-31.317-66.112C29.94-1.202,45.085,22.061,45.085,22.061z"/>
	<path fill="#DB6252" d="M70.094,10.285c15.346,6.646,25.69,28.139-25.008,70.796c0,0-13.64-12.991-19.327-18.534
		C25.759,62.547,53.335,70.082,70.094,10.285z"/>
	
		<path fill="none" stroke="#424242" stroke-width="2.585" stroke-linecap="round" stroke-linejoin="round" stroke-miterlimit="10" d="
		M42.232,19.208c0,0,16.127-22.907,31.941-7.092C97.68,35.623,42.232,78.227,42.232,78.227s-53.79-43.639-31.317-66.112
		C27.086-4.056,42.232,19.208,42.232,19.208z"/>
	<polyline fill="#E2EAED" points="64,50 64,46 71,46 71,50 	"/>
	<circle fill="#E2EAED" cx="68.039" cy="67.068" r="16.535"/>
	<path fill="#CDD4D7" d="M79.201,56.524c9.682,14.34-3.568,25.463-12.209,25.463c-8.913,0-12.602-5.603-13.52-7.805
		C66.049,84.796,81.146,72.637,79.201,56.524z"/>
	
		<circle fill="none" stroke="#424242" stroke-width="2.585" stroke-linecap="round" stroke-linejoin="round" stroke-miterlimit="10" cx="66.747" cy="65.775" r="16.535"/>
	
		<polyline fill="none" stroke="#424242" stroke-width="3" stroke-linecap="round" stroke-linejoin="round" stroke-miterlimit="10" points="
		62.5,49 62.5,45.5 68.5,45.5 68.5,48 	"/>
	
		<polyline fill="none" stroke="#424242" stroke-width="3" stroke-linecap="round" stroke-linejoin="round" stroke-miterlimit="10" points="
		55.837,72.631 66.5,65.731 66.5,53 	"/>
</g>
</svg>
