<?xml version="1.0" encoding="utf-8"?>
<!-- Generator: Adobe Illustrator 17.0.1, SVG Export Plug-In . SVG Version: 6.00 Build 0)  -->
<!DOCTYPE svg PUBLIC "-//W3C//DTD SVG 1.1//EN" "http://www.w3.org/Graphics/SVG/1.1/DTD/svg11.dtd">
<svg version="1.1" id="Layer_1" xmlns="http://www.w3.org/2000/svg" xmlns:xlink="http://www.w3.org/1999/xlink" x="0px" y="0px"
	 width="90px" height="90px" viewBox="0 0 90 90" enable-background="new 0 0 90 90" xml:space="preserve">
<g id="Cq9ZED.tif_3_">
	<g>
		
			<path fill="none" stroke="#424242" stroke-width="2.585" stroke-linecap="round" stroke-linejoin="round" stroke-miterlimit="10" d="
			M82.513,78.837c-5.113,0-9.957,0-15.127,0c0-1.974,0-3.88,0-5.786c0-5.978,0.028-11.955-0.02-17.933
			c-0.012-1.504-0.163-3.027-0.437-4.507c-0.826-4.452-3.713-6.773-7.895-6.465c-4.166,0.307-7.685,3.784-7.725,7.898
			c-0.079,8.166-0.026,16.333-0.027,24.499c0,0.669,0,1.337,0,2.226c-5.025,0-9.929,0-15.014,0c0-15.073,0-30.167,0-45.406
			c4.945,0,9.858,0,14.994,0c0,1.896,0,3.697,0,6.179c2.668-3.6,5.476-5.973,9.309-6.855c11.208-2.579,20.452,4.066,21.581,15.532
			c0.148,1.506,0.34,3.018,0.345,4.528C82.53,61.331,82.513,69.914,82.513,78.837z"/>
		
			<path fill="none" stroke="#424242" stroke-width="2.585" stroke-linecap="round" stroke-linejoin="round" stroke-miterlimit="10" d="
			M8.482,33.311c5.056,0,9.905,0,14.914,0c0,15.187,0,30.287,0,45.534c-4.967,0-9.889,0-14.914,0
			C8.482,63.662,8.482,48.622,8.482,33.311z"/>
		
			<path fill="none" stroke="#424242" stroke-width="2.585" stroke-linecap="round" stroke-linejoin="round" stroke-miterlimit="10" d="
			M16.015,26.868c-5.018,0.026-8.583-3.279-8.533-7.908c0.05-4.587,3.686-7.852,8.69-7.804c4.893,0.048,8.328,3.253,8.386,7.826
			C24.617,23.603,21.109,26.842,16.015,26.868z"/>
	</g>
</g>
</svg>
