<?xml version="1.0" encoding="utf-8"?>
<!-- Generator: Adobe Illustrator 17.0.1, SVG Export Plug-In . SVG Version: 6.00 Build 0)  -->
<!DOCTYPE svg PUBLIC "-//W3C//DTD SVG 1.1//EN" "http://www.w3.org/Graphics/SVG/1.1/DTD/svg11.dtd">
<svg version="1.1" id="Layer_1" xmlns="http://www.w3.org/2000/svg" xmlns:xlink="http://www.w3.org/1999/xlink" x="0px" y="0px"
	 width="90px" height="90px" viewBox="0 0 90 90" enable-background="new 0 0 90 90" xml:space="preserve">
<g>
	
		<path fill="none" stroke="#424242" stroke-width="2.585" stroke-linecap="round" stroke-linejoin="round" stroke-miterlimit="10" d="
		M41.972,20.538c0,5.576-9.546,22.671-14.727,31.54l-6.532-0.039c-5.187-8.88-14.705-25.933-14.705-31.501
		c0-7.653,8.051-13.856,17.982-13.856S41.972,12.885,41.972,20.538z"/>
	
		<rect x="21.5" y="52.5" fill="none" stroke="#424242" stroke-width="3" stroke-linecap="round" stroke-linejoin="round" stroke-miterlimit="10" width="7" height="30"/>
	
		<path fill="none" stroke="#424242" stroke-width="2.585" stroke-linecap="round" stroke-linejoin="round" stroke-miterlimit="10" d="
		M23.927,7.282c0,0-14.022,4.646-12.595,13.608c1.865,11.715,11.427,30.518,11.427,30.518"/>
	
		<path fill="none" stroke="#424242" stroke-width="2.585" stroke-linecap="round" stroke-linejoin="round" stroke-miterlimit="10" d="
		M23.696,7.282c0,0,14.022,4.646,12.595,13.608c-1.865,11.715-11.427,30.518-11.427,30.518"/>
	
		<line fill="none" stroke="#424242" stroke-width="3" stroke-linecap="round" stroke-linejoin="round" stroke-miterlimit="10" x1="24.5" y1="8" x2="24.5" y2="52"/>
	<path fill="none" stroke="#424242" stroke-width="3" stroke-linecap="round" stroke-linejoin="round" stroke-miterlimit="10" d="
		M72.052,64.5c0,10-6.479,18.802-14.472,18.802S43.108,74.5,43.108,64.5H72.052z"/>
	<path fill="none" stroke="#424242" stroke-width="3" stroke-linecap="round" stroke-linejoin="round" stroke-miterlimit="10" d="
		M72.052,64.183c0,0-0.151-37.178,0-48.967c0.151-11.788,9.673-9.521,11.94-3.174"/>
	<path fill="none" stroke="#424242" stroke-width="3" stroke-linecap="round" stroke-linejoin="round" stroke-miterlimit="10" d="
		M49.903,38.03c-2.267,2.123-4.038,4.627-0.421,8.913c1.722,2.04,3.293,6.222-0.012,8.172"/>
	<path fill="none" stroke="#424242" stroke-width="3" stroke-linecap="round" stroke-linejoin="round" stroke-miterlimit="10" d="
		M59.877,46.943c-2.267,1.354-4.038,2.95-0.421,5.682c1.722,1.301,3.293,3.967-0.012,5.21"/>
</g>
</svg>
