<?xml version="1.0" encoding="utf-8"?>
<!-- Generator: Adobe Illustrator 17.0.1, SVG Export Plug-In . SVG Version: 6.00 Build 0)  -->
<!DOCTYPE svg PUBLIC "-//W3C//DTD SVG 1.1//EN" "http://www.w3.org/Graphics/SVG/1.1/DTD/svg11.dtd">
<svg version="1.1" id="Layer_1" xmlns="http://www.w3.org/2000/svg" xmlns:xlink="http://www.w3.org/1999/xlink" x="0px" y="0px"
	 width="90px" height="90px" viewBox="0 0 90 90" enable-background="new 0 0 90 90" xml:space="preserve">
<g>
	<circle fill="#E2EAED" cx="46.101" cy="45.812" r="39.524"/>
	<path fill="#CDD4D7" d="M77.737,24.213c23.608,34.963-8.701,62.084-29.768,62.084c-21.733,0-32.02-13.662-34.258-19.029
		C49.122,85.337,81.866,62.61,77.737,24.213z"/>
	<polygon fill="#1FB6BE" points="36,19 54,19 54,38 70,38 70,55 54,55 54,75 36,75 36,55 19,55 19,38 36,38 	"/>
	<polygon fill="#1FA5AD" points="54.077,39 69,39 69,56 53,56 53,76 35,76 35,54.639 	"/>
	
		<circle fill="none" stroke="#424242" stroke-width="2.585" stroke-linecap="round" stroke-linejoin="round" stroke-miterlimit="10" cx="43.516" cy="43.227" r="39.524"/>
	
		<polygon fill="none" stroke="#424242" stroke-width="3" stroke-linecap="round" stroke-linejoin="round" stroke-miterlimit="10" points="
		33.5,16.5 50.5,16.5 50.5,35.5 67.5,35.5 67.5,52.5 51.5,52.5 51.5,72.5 33.5,72.5 33.5,52.5 16.5,52.5 16.5,35.5 33.5,35.5 	"/>
</g>
</svg>
