<?xml version="1.0" encoding="utf-8"?>
<!-- Generator: Adobe Illustrator 17.0.1, SVG Export Plug-In . SVG Version: 6.00 Build 0)  -->
<!DOCTYPE svg PUBLIC "-//W3C//DTD SVG 1.1//EN" "http://www.w3.org/Graphics/SVG/1.1/DTD/svg11.dtd">
<svg version="1.1" id="Layer_1" xmlns="http://www.w3.org/2000/svg" xmlns:xlink="http://www.w3.org/1999/xlink" x="0px" y="0px"
	 width="90px" height="90px" viewBox="0 0 90 90" enable-background="new 0 0 90 90" xml:space="preserve">
<g>
	<path fill="#FDD074" d="M44.28,22.971c3.121,0,7.227,6.498,10.266,11.837c0,0,9.011-1.432,9.011,1.524s-0.634,3.678-6.383,3.678
		s-6.406-0.091-7.802-2.637c-1.396-2.546-2.874-3.947-2.874-3.947l-8.083,6.568c0,0,11.585,7.675,11.585,9.728s0,13.923,0,13.923
		s0.106,4.435-3.836,4.435S42,64.63,42,60.195s0-9.034,0-9.034s-14.998-5.749-14.998-11.334S40.667,22.971,44.28,22.971z"/>
	<path fill="#E3BD6A" d="M32.427,43.452c3.421,2.756,11.794,5.271,11.794,7.324s1.663,17.303,0.747,17.303
		c-1.777,0-2.969-3.449-2.969-7.884s0-9.034,0-9.034s-14.998-5.749-14.998-11.334C27.002,36.119,30.489,41.89,32.427,43.452z"/>
	<path fill="#E3BD6A" d="M46.47,31.846c3.121,0,2.939,0.599,5.978,5.938c0,0,11.014-0.002,10.934,0.326
		c-0.211,0.859-1.281,1.9-6.207,1.9c-5.749,0-6.406-0.091-7.802-2.637c-1.396-2.546-2.874-3.947-2.874-3.947l-7.929,6.568
		c0,0-1.005,0.799-1.671,0.132C35.983,39.212,45.016,31.846,46.47,31.846z"/>
	<circle fill="#FDD074" cx="54.136" cy="17.603" r="6.16"/>
	<path fill="#E3BD6A" d="M57.433,12.404c6.446,5.61,0.543,11.595-3.239,11.22c-4.264-0.422-5.542-3.208-5.903-4.075
		C53.181,19.487,54.799,18.051,57.433,12.404z"/>
	<circle fill="#1FB6BE" cx="69.77" cy="64.178" r="15.645"/>
	<path fill="#1FA5AD" d="M81.554,54.386c9.682,14.34-3.568,25.463-12.209,25.463c-8.913,0-12.602-5.603-13.52-7.805
		C68.241,71.887,74.865,68.726,81.554,54.386z"/>
	<circle fill="#1FB6BE" cx="22.815" cy="63.521" r="15.645"/>
	<path fill="#1FA5AD" d="M35.024,53.74c9.682,14.34-3.568,25.463-12.209,25.463c-8.913,0-12.602-5.603-13.52-7.805
		C21.71,71.241,28.334,68.079,35.024,53.74z"/>
	
		<circle fill="none" stroke="#424242" stroke-width="2.585" stroke-linecap="round" stroke-linejoin="round" stroke-miterlimit="10" cx="20.23" cy="61.583" r="15.645"/>
	
		<circle fill="none" stroke="#424242" stroke-width="2.585" stroke-linecap="round" stroke-linejoin="round" stroke-miterlimit="10" cx="67.185" cy="62.24" r="15.645"/>
	
		<circle fill="none" stroke="#424242" stroke-width="2.585" stroke-linecap="round" stroke-linejoin="round" stroke-miterlimit="10" cx="52.197" cy="16.311" r="6.16"/>
	<path fill="none" stroke="#424242" stroke-width="3" stroke-linecap="round" stroke-linejoin="round" stroke-miterlimit="10" d="
		M42.342,21.032c3.121,0,7.227,6.498,10.266,11.837c0,0,9.011-1.432,9.011,1.524s-0.634,3.678-6.383,3.678s-6.406-0.091-7.802-2.637
		s-2.874-3.947-2.874-3.947l-8.363,6.568c0,0,11.304,7.675,11.304,9.728s0,13.923,0,13.923s-0.394,4.435-4.336,4.435
		S38.5,62.691,38.5,58.256s0-9.034,0-9.034s-14.217-5.749-14.217-11.334S38.728,21.032,42.342,21.032z"/>
	
		<path fill="none" stroke="#424242" stroke-width="2.585" stroke-linecap="round" stroke-linejoin="round" stroke-miterlimit="10" d="
		M20.256,61.493"/>
</g>
</svg>
