<?xml version="1.0" encoding="utf-8"?>
<!-- Generator: Adobe Illustrator 17.0.1, SVG Export Plug-In . SVG Version: 6.00 Build 0)  -->
<!DOCTYPE svg PUBLIC "-//W3C//DTD SVG 1.1//EN" "http://www.w3.org/Graphics/SVG/1.1/DTD/svg11.dtd">
<svg version="1.1" id="Layer_1" xmlns="http://www.w3.org/2000/svg" xmlns:xlink="http://www.w3.org/1999/xlink" x="0px" y="0px"
	 width="90px" height="90px" viewBox="0 0 90 90" enable-background="new 0 0 90 90" xml:space="preserve">
<g>
	<path fill="#F97159" d="M59.864,8.739c0,0-40.283,13.062-40.283,48.283c0,9.802,5.385,26.825,25.567,26.825
		c17.086,0,27.21-11.379,27.21-26.568c0-18.676-17.234-24.923-18.322-36.677C53.392,13.651,59.864,8.739,59.864,8.739z"/>
	<path fill="#DB6252" d="M25.414,74.565c3.107,5.291,12.046,9.282,19.734,9.282c17.086,0,27.21-11.379,27.21-26.568
		c0-7.241-7.44-18.95-10.675-23.5C67.296,54.759,54.478,74.565,25.414,74.565z"/>
	
		<path fill="none" stroke="#FFFFFF" stroke-width="2.585" stroke-linecap="round" stroke-linejoin="round" stroke-miterlimit="10" d="
		M26.06,48.921c0,0,0.952-7.356,5.325-13.511c4.562-6.423,9.982-8.797,9.982-8.797"/>
	
		<path fill="none" stroke="#424242" stroke-width="2.585" stroke-linecap="round" stroke-linejoin="round" stroke-miterlimit="10" d="
		M57.925,6.154c0,0-40.283,13.062-40.283,48.283c0,9.802,5.385,26.825,25.567,26.825c17.086,0,27.21-11.379,27.21-26.568
		c0-18.676-17.234-24.923-18.322-36.677C51.453,11.066,57.925,6.154,57.925,6.154z"/>
	
		<path fill="none" stroke="#424242" stroke-width="2.585" stroke-linecap="round" stroke-linejoin="round" stroke-miterlimit="10" d="
		M25.414,46.982c0,0,0.952-7.356,5.325-13.511c4.562-6.423,9.982-8.797,9.982-8.797"/>
</g>
</svg>
