<?xml version="1.0" encoding="utf-8"?>
<!-- Generator: Adobe Illustrator 17.0.1, SVG Export Plug-In . SVG Version: 6.00 Build 0)  -->
<!DOCTYPE svg PUBLIC "-//W3C//DTD SVG 1.1//EN" "http://www.w3.org/Graphics/SVG/1.1/DTD/svg11.dtd">
<svg version="1.1" id="Layer_1" xmlns="http://www.w3.org/2000/svg" xmlns:xlink="http://www.w3.org/1999/xlink" x="0px" y="0px"
	 width="90px" height="90px" viewBox="0 0 90 90" enable-background="new 0 0 90 90" xml:space="preserve">
<g>
	<polyline fill="#FDD074" points="28,34 28,84 67,84 67,34 	"/>
	<rect x="47.101" y="33.334" fill="#E3BD6A" width="19.296" height="49.513"/>
	<polygon fill="#E2EAED" points="28.534,9 66,9 66,17 71,17 71,35 22,35 22,17 27.806,17 	"/>
	<polygon fill="#CDD4D7" points="54.2,9 66,9 66,17 71,17 71,35 54.018,35 	"/>
	<rect x="27.628" y="43.678" fill="#F97159" width="23.986" height="25.657"/>
	
		<polygon fill="none" stroke="#424242" stroke-width="3" stroke-linecap="round" stroke-linejoin="round" stroke-miterlimit="10" points="
		25.621,6.5 62.5,6.5 62.5,13.5 68.5,13.5 68.5,32.5 19.5,32.5 19.5,13.5 24.893,13.5 	"/>
	
		<polyline fill="none" stroke="#424242" stroke-width="3" stroke-linecap="round" stroke-linejoin="round" stroke-miterlimit="10" points="
		24.5,32 24.5,81.5 63.5,81.5 63.5,32 	"/>
	
		<line fill="none" stroke="#424242" stroke-width="2.585" stroke-linecap="round" stroke-linejoin="round" stroke-miterlimit="10" x1="54.798" y1="28.285" x2="54.699" y2="16.494"/>
	
		<line fill="none" stroke="#424242" stroke-width="2.585" stroke-linecap="round" stroke-linejoin="round" stroke-miterlimit="10" x1="59.166" y1="28.285" x2="59.068" y2="16.494"/>
	
		<line fill="none" stroke="#424242" stroke-width="2.585" stroke-linecap="round" stroke-linejoin="round" stroke-miterlimit="10" x1="63.535" y1="28.285" x2="63.436" y2="16.494"/>
	
		<path fill="none" stroke="#424242" stroke-width="2.585" stroke-linecap="round" stroke-linejoin="round" stroke-miterlimit="10" d="
		M47.417,15.848"/>
	
		<path fill="none" stroke="#424242" stroke-width="2.585" stroke-linecap="round" stroke-linejoin="round" stroke-miterlimit="10" d="
		M47.516,27.639"/>
	
		<path fill="none" stroke="#424242" stroke-width="2.585" stroke-linecap="round" stroke-linejoin="round" stroke-miterlimit="10" d="
		M48.874,15.848"/>
	
		<path fill="none" stroke="#424242" stroke-width="2.585" stroke-linecap="round" stroke-linejoin="round" stroke-miterlimit="10" d="
		M48.973,27.639"/>
	
		<line fill="none" stroke="#424242" stroke-width="2.585" stroke-linecap="round" stroke-linejoin="round" stroke-miterlimit="10" x1="51.765" y1="13.055" x2="62.1" y2="12.956"/>
	
		<line fill="none" stroke="#424242" stroke-width="2.585" stroke-linecap="round" stroke-linejoin="round" stroke-miterlimit="10" x1="25.369" y1="13.095" x2="44.431" y2="13.31"/>
	
		<line fill="none" stroke="#424242" stroke-width="2.585" stroke-linecap="round" stroke-linejoin="round" stroke-miterlimit="10" x1="26.097" y1="41.492" x2="49.528" y2="41.707"/>
	
		<line fill="none" stroke="#424242" stroke-width="2.585" stroke-linecap="round" stroke-linejoin="round" stroke-miterlimit="10" x1="26.097" y1="66.977" x2="49.528" y2="67.192"/>
	
		<line fill="none" stroke="#424242" stroke-width="2.585" stroke-linecap="round" stroke-linejoin="round" stroke-miterlimit="10" x1="50.298" y1="41.707" x2="50.084" y2="67.15"/>
</g>
</svg>
