<?xml version="1.0" encoding="utf-8"?>
<!-- Generator: Adobe Illustrator 17.0.1, SVG Export Plug-In . SVG Version: 6.00 Build 0)  -->
<!DOCTYPE svg PUBLIC "-//W3C//DTD SVG 1.1//EN" "http://www.w3.org/Graphics/SVG/1.1/DTD/svg11.dtd">
<svg version="1.1" id="Layer_1" xmlns="http://www.w3.org/2000/svg" xmlns:xlink="http://www.w3.org/1999/xlink" x="0px" y="0px"
	 width="90px" height="90px" viewBox="0 0 90 90" enable-background="new 0 0 90 90" xml:space="preserve">
<g>
	
		<circle fill="none" stroke="#424242" stroke-width="2.585" stroke-linecap="round" stroke-linejoin="round" stroke-miterlimit="10" cx="21.522" cy="62.398" r="15.645"/>
	
		<circle fill="none" stroke="#424242" stroke-width="2.585" stroke-linecap="round" stroke-linejoin="round" stroke-miterlimit="10" cx="68.478" cy="63.055" r="15.645"/>
	
		<circle fill="none" stroke="#424242" stroke-width="2.585" stroke-linecap="round" stroke-linejoin="round" stroke-miterlimit="10" cx="53.49" cy="17.126" r="6.16"/>
	
		<path fill="none" stroke="#424242" stroke-width="2.585" stroke-linecap="round" stroke-linejoin="round" stroke-miterlimit="10" d="
		M43.634,21.847c3.121,0,7.227,6.498,10.266,11.837c0,0,9.011-1.432,9.011,1.524c0,2.957-0.634,3.678-6.383,3.678
		s-6.406-0.091-7.802-2.637s-2.874-3.947-2.874-3.947l-8.252,6.568c0,0,11.415,7.675,11.415,9.728s0,13.923,0,13.923
		s-0.094,4.435-4.036,4.435s-4.365-3.449-4.365-7.884s0-9.034,0-9.034s-14.628-5.749-14.628-11.334S40.021,21.847,43.634,21.847z"/>
	
		<path fill="none" stroke="#424242" stroke-width="2.585" stroke-linecap="round" stroke-linejoin="round" stroke-miterlimit="10" d="
		M21.549,62.309"/>
</g>
</svg>
