<?xml version="1.0" encoding="utf-8"?>
<!-- Generator: Adobe Illustrator 17.0.1, SVG Export Plug-In . SVG Version: 6.00 Build 0)  -->
<!DOCTYPE svg PUBLIC "-//W3C//DTD SVG 1.1//EN" "http://www.w3.org/Graphics/SVG/1.1/DTD/svg11.dtd">
<svg version="1.1" id="Layer_1" xmlns="http://www.w3.org/2000/svg" xmlns:xlink="http://www.w3.org/1999/xlink" x="0px" y="0px"
	 width="90px" height="90px" viewBox="0 0 90 90" enable-background="new 0 0 90 90" xml:space="preserve">
<g>
	
		<path fill="none" stroke="#424242" stroke-width="2.585" stroke-linecap="round" stroke-linejoin="round" stroke-miterlimit="10" d="
		M34.435,48.728c0,0-13.792,8.857-18.505,27.168c0,0,9.943,5.423,29.07,5.423s29.07-5.7,29.07-5.7s-9.391-23.715-18.505-26.892
		L45,53.467L34.435,48.728z"/>
	
		<line fill="none" stroke="#424242" stroke-width="3" stroke-linecap="round" stroke-linejoin="round" stroke-miterlimit="10" x1="45.5" y1="54" x2="45.5" y2="80"/>
	
		<rect x="50.852" y="63.103" fill="none" stroke="#424242" stroke-width="3" stroke-linecap="round" stroke-linejoin="round" stroke-miterlimit="10" width="12" height="9.75"/>
	<path fill="none" stroke="#424242" stroke-width="3" stroke-linecap="round" stroke-linejoin="round" stroke-miterlimit="10" d="
		M58.602,25.5c0,0-0.137-6.074-0.137-10.074S52.051,8.64,45.051,8.64S31.5,9.353,31.5,17.353s0,8.147,0,8.147h0.222
		c-0.111,0-0.186,1.487-0.186,2.31c0,8.7,1.933,18.753,13.731,18.753s13.199-12.934,13.199-19.287c0-0.6-0.057-1.776-0.142-1.776
		H58.602z"/>
	
		<line fill="none" stroke="#424242" stroke-width="3" stroke-linecap="round" stroke-linejoin="round" stroke-miterlimit="10" x1="45.5" y1="15" x2="45.5" y2="20"/>
	
		<line fill="none" stroke="#424242" stroke-width="3" stroke-linecap="round" stroke-linejoin="round" stroke-miterlimit="10" x1="43" y1="17.5" x2="48" y2="17.5"/>
	
		<line fill="none" stroke="#424242" stroke-width="3" stroke-linecap="round" stroke-linejoin="round" stroke-miterlimit="10" x1="32" y1="25.5" x2="59" y2="25.5"/>
</g>
</svg>
