<?xml version="1.0" encoding="utf-8"?>
<!-- Generator: Adobe Illustrator 17.0.1, SVG Export Plug-In . SVG Version: 6.00 Build 0)  -->
<!DOCTYPE svg PUBLIC "-//W3C//DTD SVG 1.1//EN" "http://www.w3.org/Graphics/SVG/1.1/DTD/svg11.dtd">
<svg version="1.1" id="Layer_1" xmlns="http://www.w3.org/2000/svg" xmlns:xlink="http://www.w3.org/1999/xlink" x="0px" y="0px"
	 width="90px" height="90px" viewBox="0 0 90 90" enable-background="new 0 0 90 90" xml:space="preserve">
<g>
	<polygon fill="#1FB6BE" points="34,12 57,12 57,35 81,35 81,58 59,58 59,81 34,81 34,58 11,58 11,35 34,35 	"/>
	<polygon fill="#1FA5AD" points="58.058,35 81,35 81,58 59,58 59,81 34,81 34,57.995 	"/>
	
		<polygon fill="none" stroke="#424242" stroke-width="3" stroke-linecap="round" stroke-linejoin="round" stroke-miterlimit="10" points="
		31.5,8.5 54.5,8.5 54.5,31.5 78.5,31.5 78.5,54.5 56.5,54.5 56.5,77.5 31.5,77.5 31.5,54.5 8.5,54.5 8.5,31.5 31.5,31.5 	"/>
	<g>
		<defs>
			<polygon id="SVGID_5_" points="39,17 50,17 50,39 75,39 75,50 50,50 50,72 39,72 39,50 15,50 15,39 39,39 			"/>
		</defs>
		<clipPath id="SVGID_2_">
			<use xlink:href="#SVGID_5_"  overflow="visible"/>
		</clipPath>
		<polygon clip-path="url(#SVGID_2_)" fill="#F97159" points="35,13 59,13 59,36 82,36 82,59 60,59 60,82 35,82 35,59 12,59 12,36 
			35,36 		"/>
		<polygon clip-path="url(#SVGID_2_)" fill="#DB6252" points="59.35,36 82,36 82,59 60,59 60,82 35,82 35,59.287 		"/>
	</g>
	
		<polygon fill="none" stroke="#424242" stroke-width="3" stroke-linecap="round" stroke-linejoin="round" stroke-miterlimit="10" points="
		38.5,15.5 49.5,15.5 49.5,38.5 73.5,38.5 73.5,48.5 49.5,48.5 49.5,71.5 38.5,71.5 38.5,48.5 14.5,48.5 14.5,38.5 38.5,38.5 	"/>
</g>
</svg>
