<?xml version="1.0" encoding="utf-8"?>
<!-- Generator: Adobe Illustrator 17.0.1, SVG Export Plug-In . SVG Version: 6.00 Build 0)  -->
<!DOCTYPE svg PUBLIC "-//W3C//DTD SVG 1.1//EN" "http://www.w3.org/Graphics/SVG/1.1/DTD/svg11.dtd">
<svg version="1.1" id="Layer_1" xmlns="http://www.w3.org/2000/svg" xmlns:xlink="http://www.w3.org/1999/xlink" x="0px" y="0px"
	 width="90px" height="90px" viewBox="0 0 90 90" enable-background="new 0 0 90 90" xml:space="preserve">
<g>
	<g>
		
			<polygon fill="none" stroke="#424242" stroke-width="2.585" stroke-linecap="round" stroke-linejoin="round" stroke-miterlimit="10" points="
			70.204,11.071 70.204,32.673 65.321,28.555 59.218,32.673 59.218,11.071 13.333,11.071 13.333,84.099 76.667,84.099 
			76.667,11.071 		"/>
		
			<polygon fill="none" stroke="#424242" stroke-width="2.585" stroke-linecap="round" stroke-linejoin="round" stroke-miterlimit="10" points="
			65.321,28.555 70.204,32.673 70.204,11.071 70.204,5.901 59.218,5.901 59.218,11.071 59.218,32.673 		"/>
	</g>
	
		<line fill="none" stroke="#424242" stroke-width="2.585" stroke-linecap="round" stroke-linejoin="round" stroke-miterlimit="10" x1="25.612" y1="11.071" x2="25.612" y2="22.704"/>
	
		<line fill="none" stroke="#424242" stroke-width="2.585" stroke-linecap="round" stroke-linejoin="round" stroke-miterlimit="10" x1="25.612" y1="29.813" x2="25.612" y2="82.806"/>
	
		<polygon fill="none" stroke="#424242" stroke-width="2.585" stroke-linecap="round" stroke-linejoin="round" stroke-miterlimit="10" points="
		45,35.629 53.401,35.629 53.401,42.738 60.51,42.738 60.51,53.078 54.694,53.078 54.694,59.541 45,59.541 45,53.078 37.891,53.078 
		37.891,44.031 45,44.031 	"/>
	
		<line fill="none" stroke="#424242" stroke-width="2.585" stroke-linecap="round" stroke-linejoin="round" stroke-miterlimit="10" x1="41.769" y1="70.527" x2="57.925" y2="70.527"/>
	
		<line fill="none" stroke="#424242" stroke-width="2.585" stroke-linecap="round" stroke-linejoin="round" stroke-miterlimit="10" x1="46.939" y1="75.697" x2="52.755" y2="75.697"/>
	
		<line fill="none" stroke="#424242" stroke-width="2.585" stroke-linecap="round" stroke-linejoin="round" stroke-miterlimit="10" x1="19.796" y1="14.303" x2="19.796" y2="19.473"/>
	
		<line fill="none" stroke="#424242" stroke-width="2.585" stroke-linecap="round" stroke-linejoin="round" stroke-miterlimit="10" x1="19.796" y1="58.248" x2="19.796" y2="67.942"/>
	
		<line fill="none" stroke="#424242" stroke-width="2.585" stroke-linecap="round" stroke-linejoin="round" stroke-miterlimit="10" x1="19.796" y1="73.112" x2="19.796" y2="76.344"/>
</g>
</svg>
