<?xml version="1.0" encoding="utf-8"?>
<!-- Generator: Adobe Illustrator 17.0.1, SVG Export Plug-In . SVG Version: 6.00 Build 0)  -->
<!DOCTYPE svg PUBLIC "-//W3C//DTD SVG 1.1//EN" "http://www.w3.org/Graphics/SVG/1.1/DTD/svg11.dtd">
<svg version="1.1" id="Layer_1" xmlns="http://www.w3.org/2000/svg" xmlns:xlink="http://www.w3.org/1999/xlink" x="0px" y="0px"
	 width="90px" height="90px" viewBox="0 0 90 90" enable-background="new 0 0 90 90" xml:space="preserve">
<g>
	<path fill="#F97159" d="M45.83,32.4c4.787,0,9.318-6.497,16.157-6.497s15.9,11.669,15.9,24.513S65.406,83.263,58.396,83.263
		s-7.865-2.65-11.797-2.65s-5.727,2.65-10.857,2.65S14.628,66.166,14.628,48.642s11.54-22.739,16.413-22.739S41.213,32.4,45.83,32.4
		z"/>
	<path fill="#DB6252" d="M77.886,51.062c0,12.844-12.481,32.848-19.491,32.848c-5.648,0-8.139-2.106-10.95-3.426
		c-0.678-0.319-6.735,2.715-11.187,2.715c-4.503,0-13.874-7.805-7.775-7.805c4.141,0,31.649-7.341,36.769-47.297
		C66.074,21.687,77.886,37.786,77.886,51.062z"/>
	<path fill="#FDD074" d="M45.044,30.713c0,0,0.847-10.978-4.962-14.395c-6.664-3.921-8.472-7.7-10.018-8.153
		c-1.546-0.453-4.938,6.056-1.906,12.426S45.549,31.648,45.044,30.713z"/>
	<path fill="#E3BD6A" d="M43.751,30.713c0,0,0.847-10.978-4.962-14.395c-6.664-3.921-8.472-7.7-10.018-8.153
		C27.225,7.712,44.257,31.648,43.751,30.713z"/>
	
		<path fill="none" stroke="#FFFFFF" stroke-width="2.585" stroke-linecap="round" stroke-linejoin="round" stroke-miterlimit="10" d="
		M35.686,80.552c0,0,5.978,0.003,13.928-6.654"/>
	
		<path fill="none" stroke="#424242" stroke-width="2.585" stroke-linecap="round" stroke-linejoin="round" stroke-miterlimit="10" d="
		M43.315,30.348c4.787,0,9.318-6.497,16.157-6.497s15.9,11.669,15.9,24.513S62.892,81.212,55.882,81.212s-7.865-2.65-11.797-2.65
		s-5.727,2.65-10.857,2.65S12.114,64.115,12.114,46.59s11.54-22.739,16.413-22.739S38.699,30.348,43.315,30.348z"/>
	
		<path fill="none" stroke="#424242" stroke-width="2.585" stroke-linecap="round" stroke-linejoin="round" stroke-miterlimit="10" d="
		M33.747,81.198c0,0,5.978,0.003,13.928-6.654"/>
	
		<path fill="none" stroke="#424242" stroke-width="2.585" stroke-linecap="round" stroke-linejoin="round" stroke-miterlimit="10" d="
		M43.966,30.331c0,0,0-15.541,10.292-15.541"/>
	
		<path fill="none" stroke="#424242" stroke-width="2.585" stroke-linecap="round" stroke-linejoin="round" stroke-miterlimit="10" d="
		M43.059,28.661c0,0,0.847-10.978-4.962-14.395c-6.664-3.921-8.472-7.7-10.018-8.153c-1.546-0.453-4.938,6.056-1.906,12.426
		S43.565,29.596,43.059,28.661z"/>
</g>
</svg>
