<?xml version="1.0" encoding="utf-8"?>
<!-- Generator: Adobe Illustrator 17.0.1, SVG Export Plug-In . SVG Version: 6.00 Build 0)  -->
<!DOCTYPE svg PUBLIC "-//W3C//DTD SVG 1.1//EN" "http://www.w3.org/Graphics/SVG/1.1/DTD/svg11.dtd">
<svg version="1.1" id="Layer_1" xmlns="http://www.w3.org/2000/svg" xmlns:xlink="http://www.w3.org/1999/xlink" x="0px" y="0px"
	 width="90px" height="90px" viewBox="0 0 90 90" enable-background="new 0 0 90 90" xml:space="preserve">
<path fill="none" stroke="#424242" stroke-width="2.585" stroke-linecap="round" stroke-linejoin="round" stroke-miterlimit="10" d="
	M82,45c0,20.435-16.565,37-37,37S8,65.435,8,45S24.565,8,45,8S82,24.565,82,45z M82,44.966L8,45.034 M44.567,8.89v72 M45.567,81.502
	c0,0,20-9.809,20-36.469s-20-36.531-20-36.531 M43.567,8.502c0,0-20,9.872-20,36.531s20,36.469,20,36.469 M15.029,23.302
	c0,0,7.038,4.838,29.538,4.838s30.404-4.838,30.404-4.838 M74.971,66.14c0,0-7.904-4.838-30.404-4.838S15.029,66.14,15.029,66.14"/>
</svg>
