<?xml version="1.0" encoding="utf-8"?>
<!-- Generator: Adobe Illustrator 17.0.1, SVG Export Plug-In . SVG Version: 6.00 Build 0)  -->
<!DOCTYPE svg PUBLIC "-//W3C//DTD SVG 1.1//EN" "http://www.w3.org/Graphics/SVG/1.1/DTD/svg11.dtd">
<svg version="1.1" id="Layer_1" xmlns="http://www.w3.org/2000/svg" xmlns:xlink="http://www.w3.org/1999/xlink" x="0px" y="0px"
	 width="90px" height="90px" viewBox="0 0 90 90" enable-background="new 0 0 90 90" xml:space="preserve">
<g>
	
		<path fill="none" stroke="#424242" stroke-width="2.585" stroke-linecap="round" stroke-linejoin="round" stroke-miterlimit="10" d="
		M25.988,19.574h27.789V8.588h-6.374c0,0-0.833-6.456-6.872-6.456s-6.872,6.456-6.872,6.456h-7.671V19.574z"/>
	
		<line fill="none" stroke="#424242" stroke-width="2.585" stroke-linecap="round" stroke-linejoin="round" stroke-miterlimit="10" x1="28.573" y1="29.33" x2="42.144" y2="29.33"/>
	
		<line fill="none" stroke="#424242" stroke-width="2.585" stroke-linecap="round" stroke-linejoin="round" stroke-miterlimit="10" x1="28.573" y1="35.146" x2="48.607" y2="35.146"/>
	
		<line fill="none" stroke="#424242" stroke-width="2.585" stroke-linecap="round" stroke-linejoin="round" stroke-miterlimit="10" x1="28.573" y1="41.609" x2="40.852" y2="41.609"/>
	
		<line fill="none" stroke="#424242" stroke-width="2.585" stroke-linecap="round" stroke-linejoin="round" stroke-miterlimit="10" x1="28.573" y1="48.071" x2="51.192" y2="48.071"/>
	
		<circle fill="none" stroke="#424242" stroke-width="2.585" stroke-linecap="round" stroke-linejoin="round" stroke-miterlimit="10" cx="40.778" cy="9.997" r="0.872"/>
	
		<circle fill="none" stroke="#424242" stroke-width="2.585" stroke-linecap="round" stroke-linejoin="round" stroke-miterlimit="10" cx="61.278" cy="71.332" r="16.535"/>
	
		<polyline fill="none" stroke="#424242" stroke-width="2.585" stroke-linecap="round" stroke-linejoin="round" stroke-miterlimit="10" points="
		57.348,54.486 57.348,50.608 63.811,50.608 63.811,53.839 	"/>
	
		<polyline fill="none" stroke="#424242" stroke-width="2.585" stroke-linecap="round" stroke-linejoin="round" stroke-miterlimit="10" points="
		50.563,78.091 61.226,71.288 61.226,58.363 	"/>
	
		<polyline fill="none" stroke="#424242" stroke-width="3" stroke-linecap="round" stroke-linejoin="round" stroke-miterlimit="10" points="
		55,14.5 68.5,14.5 68.5,56 	"/>
	
		<polyline fill="none" stroke="#424242" stroke-width="3" stroke-linecap="round" stroke-linejoin="round" stroke-miterlimit="10" points="
		25,14.5 12.5,14.5 12.5,83.5 49,83.5 	"/>
	
		<polyline fill="none" stroke="#424242" stroke-width="3" stroke-linecap="round" stroke-linejoin="round" stroke-miterlimit="10" points="
		21.5,15 21.5,73.5 45,73.5 	"/>
	
		<line fill="none" stroke="#424242" stroke-width="3" stroke-linecap="round" stroke-linejoin="round" stroke-miterlimit="10" x1="59.5" y1="15" x2="59.5" y2="50"/>
</g>
</svg>
