<?xml version="1.0" encoding="utf-8"?>
<!-- Generator: Adobe Illustrator 17.0.1, SVG Export Plug-In . SVG Version: 6.00 Build 0)  -->
<!DOCTYPE svg PUBLIC "-//W3C//DTD SVG 1.1//EN" "http://www.w3.org/Graphics/SVG/1.1/DTD/svg11.dtd">
<svg version="1.1" id="Layer_1" xmlns="http://www.w3.org/2000/svg" xmlns:xlink="http://www.w3.org/1999/xlink" x="0px" y="0px"
	 width="90px" height="90px" viewBox="0 0 90 90" enable-background="new 0 0 90 90" xml:space="preserve">
<g>
	<rect x="9" y="19" fill="#E3BD6A" width="74" height="54"/>
	<path fill="#FDD074" d="M10.501,18h73.752c0,0-22.555,23.409-28.063,28.918s-6.494,6.341-8.813,6.341
		c-2.319,0-3.653-1.453-7.306-5.106C36.418,44.501,10.501,18,10.501,18z"/>
	<path fill="none" stroke="#424242" stroke-width="3" stroke-linecap="round" stroke-linejoin="round" stroke-miterlimit="10" d="
		M6.326,17.5h73.752c0,0-22.555,22.964-28.063,28.472s-6.494,6.119-8.813,6.119s-3.653-1.119-7.306-4.771
		C32.244,43.666,6.326,17.5,6.326,17.5z"/>
	
		<rect x="5.5" y="16.5" fill="none" stroke="#424242" stroke-width="3" stroke-linecap="round" stroke-linejoin="round" stroke-miterlimit="10" width="75" height="54"/>
	
		<line fill="none" stroke="#424242" stroke-width="2.585" stroke-linecap="round" stroke-linejoin="round" stroke-miterlimit="10" x1="6.326" y1="69.573" x2="32.771" y2="44.244"/>
	
		<line fill="none" stroke="#424242" stroke-width="2.585" stroke-linecap="round" stroke-linejoin="round" stroke-miterlimit="10" x1="80.774" y1="69.573" x2="56.401" y2="43.891"/>
</g>
</svg>
